<?xml version="1.0" encoding="utf-8"?>
<!-- Generator: Adobe Illustrator 16.0.3, SVG Export Plug-In . SVG Version: 6.00 Build 0)  -->
<!DOCTYPE svg PUBLIC "-//W3C//DTD SVG 1.1//EN" "http://www.w3.org/Graphics/SVG/1.1/DTD/svg11.dtd">
<svg version="1.1" id="Layer_1" xmlns="http://www.w3.org/2000/svg" xmlns:xlink="http://www.w3.org/1999/xlink" x="0px" y="0px"
	 width="185px" height="188px" viewBox="0 0 185 188" enable-background="new 0 0 185 188" xml:space="preserve">
<g>
	<text transform="matrix(1 0 0 1 46.2358 22.957)" fill="#5D5D5D" font-family="'MyriadPro-Bold'" font-size="20">CAPBS Meeting</text>
	<text transform="matrix(1 0 0 1 46.2358 46.957)" fill="#5D5D5D" font-family="'MyriadPro-Bold'" font-size="20">Nijmegen 2018</text>
</g>
<g>
	<g>
		<path fill="#D80027" d="M16.69,6.232h-2.07c-1.395,0-2.726,0.348-3.874,1.039l4.105,3.492c0.629,0.538,0.702,1.472,0.163,2.099
			c-0.296,0.345-0.716,0.517-1.139,0.517c-0.345,0-0.692-0.12-0.975-0.362L8.69,9.419c-0.054-0.047-0.104-0.098-0.149-0.15
			C8.453,9.39,8.368,9.514,8.288,9.641l-2.21,3.482c4.275,0.787,7.896,3.85,9.285,8.111c0.256,0.785-0.175,1.628-0.962,1.883
			c-0.154,0.05-0.31,0.074-0.463,0.074c-0.632,0-1.22-0.401-1.425-1.033c-1.176-3.606-4.478-6.068-8.211-6.237l-2.124,3.323
			C1.417,20.441,1,21.822,1,23.238v1.806c0,0.361,0.13,0.713,0.345,1.004l0.962,1.299l-0.98,1.493
			c-0.179,0.271-0.289,0.589-0.293,0.915L1,31.575c0,0.007,0,0.013,0,0.019c0,1.43,0.423,2.821,1.196,4.025l1.766,2.739l0.726-0.642
			c2.82-2.505,6.454-3.883,10.23-3.883c0.828,0,1.5,0.668,1.5,1.494c0,0.825-0.67,1.494-1.499,1.494c-3.04,0-5.964,1.11-8.233,3.126
			l-1.082,0.961l2.779,4.33c0.037,0.057,0.078,0.111,0.116,0.168l4.183-3.576c0.628-0.538,1.575-0.464,2.114,0.163
			c0.539,0.625,0.466,1.569-0.163,2.106l-3.983,3.438c1.187,0.759,2.582,1.213,4.046,1.213h2.072c1.47,0,2.871-0.576,3.992-1.503
			V7.664C19.626,6.694,18.193,6.232,16.69,6.232z M14.981,30.005h-1.743c-4.56,0-8.269-3.692-8.269-8.236
			c0-0.825,0.672-1.492,1.5-1.492c0.828,0,1.499,0.665,1.499,1.49c0,2.896,2.365,5.25,5.27,5.25h1.743
			c0.828,0,1.499,0.668,1.499,1.494C16.48,29.336,15.809,30.005,14.981,30.005z"/>
	</g>
</g>
<g>
	<g>
		<path fill="#D80027" d="M43.485,29.754c-0.003-0.325-0.108-0.643-0.287-0.915l-0.989-1.492l0.968-1.299
			c0.214-0.292,0.343-0.643,0.343-1.004v-1.807c0-1.416-0.416-2.796-1.176-3.993l-2.12-3.33c-3.79,0.115-7.158,2.595-8.347,6.243
			c-0.207,0.631-0.795,1.033-1.427,1.033c-0.154,0-0.311-0.023-0.466-0.073c-0.787-0.255-1.219-1.098-0.962-1.883
			c1.403-4.302,5.08-7.382,9.408-8.133L36.234,9.64c-0.101-0.158-0.208-0.31-0.318-0.458c-0.064,0.085-0.138,0.164-0.221,0.236
			l-4.21,3.599c-0.283,0.242-0.63,0.359-0.976,0.359c-0.422,0-0.842-0.176-1.138-0.521c-0.539-0.626-0.467-1.569,0.161-2.107
			l4.162-3.523c-1.129-0.661-2.43-0.992-3.792-0.992H27.83c-1.503,0-2.936,0.462-4.071,1.431v39.585
			c1.122,0.927,2.522,1.503,3.993,1.503h2.071c1.433,0,2.799-0.435,3.968-1.163l-4.042-3.47c-0.628-0.538-0.702-1.49-0.163-2.117
			c0.539-0.625,1.485-0.703,2.114-0.166l4.21,3.596c0.021,0.018,0.038,0.035,0.057,0.053c0.056-0.082,0.114-0.163,0.168-0.246
			l2.729-4.252l-1.169-1.039c-2.269-2.016-5.193-3.126-8.233-3.126c-0.829,0-1.5-0.669-1.5-1.494c0-0.826,0.671-1.494,1.5-1.494
			c3.776,0,7.408,1.378,10.228,3.883l0.81,0.719l1.822-2.817c0.772-1.204,1.195-2.596,1.195-4.025c0-0.006,0-0.012,0-0.019
			L43.485,29.754z M31.146,30.005h-1.743c-0.828,0-1.499-0.668-1.499-1.494c0-0.825,0.671-1.494,1.499-1.494h1.743
			c2.905,0,5.27-2.352,5.27-5.248c0-0.825,0.671-1.492,1.5-1.492c0.828,0,1.499,0.665,1.499,1.49
			C39.414,26.313,35.705,30.005,31.146,30.005z"/>
	</g>
</g>
<text transform="matrix(1 0 0 1 46.2358 87.957)" fill="#4D4D4D" font-family="'MyriadPro-Bold'" font-size="20">CAPBS Meeting</text>
<text transform="matrix(1 0 0 1 46.2358 111.957)" fill="#4D4D4D" font-family="'MyriadPro-Bold'" font-size="20">Nijmegen 2018</text>
<g>
	<g>
		<g>
			<path fill="#AAAAAA" d="M16.69,71.232h-2.07c-1.395,0-2.726,0.348-3.874,1.039l4.105,3.492c0.629,0.538,0.702,1.472,0.163,2.099
				c-0.296,0.345-0.716,0.517-1.139,0.517c-0.345,0-0.692-0.12-0.975-0.362l-4.21-3.599c-0.054-0.047-0.104-0.098-0.149-0.15
				c-0.088,0.121-0.172,0.245-0.253,0.372l-2.21,3.482c4.275,0.787,7.896,3.85,9.285,8.111c0.256,0.785-0.175,1.628-0.962,1.883
				c-0.154,0.05-0.31,0.074-0.463,0.074c-0.632,0-1.22-0.401-1.425-1.033c-1.176-3.606-4.478-6.068-8.211-6.237l-2.124,3.323
				C1.417,85.441,1,86.822,1,88.238v1.806c0,0.361,0.13,0.713,0.345,1.004l0.962,1.299l-0.98,1.493
				c-0.179,0.271-0.289,0.59-0.293,0.914L1,96.575c0,0.007,0,0.013,0,0.019c0,1.43,0.423,2.822,1.196,4.025l1.766,2.74l0.726-0.644
				c2.82-2.504,6.454-3.883,10.23-3.883c0.828,0,1.5,0.668,1.5,1.494c0,0.823-0.67,1.493-1.499,1.493
				c-3.04,0-5.964,1.111-8.233,3.127l-1.082,0.961l2.779,4.33c0.037,0.058,0.078,0.111,0.116,0.169l4.183-3.576
				c0.628-0.537,1.575-0.465,2.114,0.162c0.539,0.626,0.466,1.569-0.163,2.106l-3.983,3.438c1.187,0.759,2.582,1.213,4.046,1.213
				h2.072c1.47,0,2.871-0.576,3.992-1.503V72.664C19.626,71.694,18.193,71.232,16.69,71.232z M14.981,95.005h-1.743
				c-4.56,0-8.269-3.692-8.269-8.236c0-0.825,0.672-1.492,1.5-1.492c0.828,0,1.499,0.665,1.499,1.49c0,2.896,2.365,5.25,5.27,5.25
				h1.743c0.828,0,1.499,0.668,1.499,1.494C16.48,94.337,15.809,95.005,14.981,95.005z"/>
		</g>
	</g>
</g>
<g>
	<g>
		<g>
			<path fill="#AAAAAA" d="M43.485,94.754c-0.003-0.324-0.108-0.643-0.287-0.914l-0.989-1.492l0.968-1.299
				c0.214-0.292,0.343-0.643,0.343-1.004v-1.807c0-1.416-0.416-2.796-1.176-3.993l-2.12-3.33c-3.79,0.115-7.158,2.595-8.347,6.243
				c-0.207,0.631-0.795,1.033-1.427,1.033c-0.154,0-0.311-0.023-0.466-0.073c-0.787-0.255-1.219-1.098-0.962-1.883
				c1.403-4.302,5.08-7.382,9.408-8.133l-2.196-3.461c-0.101-0.158-0.208-0.31-0.318-0.458c-0.064,0.085-0.138,0.164-0.221,0.236
				l-4.21,3.599c-0.283,0.242-0.63,0.359-0.976,0.359c-0.422,0-0.842-0.176-1.138-0.521c-0.539-0.626-0.467-1.569,0.161-2.107
				l4.162-3.523c-1.129-0.661-2.43-0.992-3.792-0.992H27.83c-1.503,0-2.936,0.462-4.071,1.431v39.585
				c1.122,0.927,2.522,1.503,3.993,1.503h2.071c1.433,0,2.799-0.437,3.968-1.163l-4.042-3.47c-0.628-0.538-0.702-1.49-0.163-2.117
				c0.539-0.625,1.485-0.703,2.114-0.166l4.21,3.597c0.021,0.019,0.038,0.035,0.057,0.053c0.056-0.082,0.114-0.162,0.168-0.245
				l2.729-4.253l-1.169-1.038c-2.269-2.017-5.193-3.126-8.233-3.126c-0.829,0-1.5-0.67-1.5-1.494c0-0.826,0.671-1.494,1.5-1.494
				c3.776,0,7.408,1.379,10.228,3.883l0.81,0.721l1.822-2.817c0.772-1.203,1.195-2.597,1.195-4.024c0-0.007,0-0.013,0-0.02
				L43.485,94.754z M31.146,95.005h-1.743c-0.828,0-1.499-0.669-1.499-1.494c0-0.825,0.671-1.494,1.499-1.494h1.743
				c2.905,0,5.27-2.352,5.27-5.248c0-0.825,0.671-1.492,1.5-1.492c0.828,0,1.499,0.665,1.499,1.49
				C39.414,91.313,35.705,95.005,31.146,95.005z"/>
		</g>
	</g>
</g>
<g>
	<text transform="matrix(1 0 0 1 46.2358 150.957)" fill="#EAEAEA" font-family="'MyriadPro-Bold'" font-size="20">CAPBS Meeting</text>
	<text transform="matrix(1 0 0 1 46.2358 174.957)" fill="#EAEAEA" font-family="'MyriadPro-Bold'" font-size="20">Nijmegen 2018</text>
</g>
<g>
	<g>
		<path fill="#D80027" d="M16.69,134.232h-2.07c-1.395,0-2.726,0.348-3.874,1.039l4.105,3.492c0.629,0.536,0.702,1.473,0.163,2.1
			c-0.296,0.345-0.716,0.517-1.139,0.517c-0.345,0-0.692-0.12-0.975-0.362l-4.21-3.599c-0.054-0.047-0.104-0.099-0.149-0.149
			c-0.088,0.121-0.172,0.244-0.253,0.371l-2.21,3.482c4.275,0.787,7.896,3.85,9.285,8.111c0.256,0.785-0.175,1.629-0.962,1.883
			c-0.154,0.051-0.31,0.074-0.463,0.074c-0.632,0-1.22-0.401-1.425-1.033c-1.176-3.605-4.478-6.067-8.211-6.236l-2.124,3.322
			C1.417,148.441,1,149.822,1,151.238v1.807c0,0.361,0.13,0.713,0.345,1.004l0.962,1.299l-0.981,1.492
			c-0.179,0.271-0.289,0.59-0.293,0.914L1,159.575c0,0.007,0,0.013,0,0.019c0,1.43,0.423,2.822,1.196,4.025l1.766,2.74l0.726-0.644
			c2.82-2.504,6.454-3.883,10.23-3.883c0.828,0,1.5,0.668,1.5,1.494c0,0.823-0.67,1.493-1.499,1.493
			c-3.04,0-5.964,1.111-8.233,3.127l-1.082,0.961l2.779,4.33c0.037,0.058,0.078,0.111,0.116,0.169l4.183-3.576
			c0.628-0.537,1.575-0.465,2.114,0.162c0.539,0.626,0.466,1.569-0.163,2.106l-3.983,3.438c1.187,0.759,2.582,1.213,4.046,1.213
			h2.072c1.47,0,2.871-0.576,3.992-1.503v-39.585C19.626,134.693,18.193,134.232,16.69,134.232z M14.981,158.005h-1.743
			c-4.56,0-8.269-3.692-8.269-8.235c0-0.826,0.672-1.492,1.5-1.492c0.828,0,1.499,0.666,1.499,1.49c0,2.896,2.365,5.25,5.27,5.25
			h1.743c0.828,0,1.499,0.668,1.499,1.493S15.809,158.005,14.981,158.005z"/>
	</g>
</g>
<g>
	<g>
		<path fill="#D80027" d="M43.485,157.754c-0.003-0.324-0.108-0.643-0.287-0.914l-0.989-1.492l0.968-1.299
			c0.214-0.291,0.343-0.643,0.343-1.004v-1.807c0-1.416-0.416-2.797-1.176-3.994l-2.12-3.329c-3.79,0.114-7.158,2.595-8.347,6.243
			c-0.207,0.631-0.795,1.033-1.427,1.033c-0.154,0-0.311-0.023-0.466-0.074c-0.787-0.254-1.219-1.098-0.962-1.883
			c1.403-4.303,5.08-7.383,9.408-8.133l-2.196-3.461c-0.101-0.158-0.208-0.312-0.318-0.459c-0.064,0.084-0.138,0.164-0.221,0.235
			l-4.21,3.599c-0.283,0.241-0.63,0.358-0.976,0.358c-0.422,0-0.842-0.176-1.138-0.521c-0.539-0.625-0.467-1.568,0.161-2.106
			l4.162-3.522c-1.129-0.66-2.43-0.992-3.792-0.992H27.83c-1.503,0-2.936,0.463-4.071,1.433v39.585
			c1.122,0.927,2.522,1.503,3.993,1.503h2.071c1.433,0,2.799-0.437,3.968-1.163l-4.042-3.47c-0.628-0.538-0.702-1.49-0.163-2.117
			c0.539-0.625,1.485-0.703,2.114-0.166l4.21,3.597c0.021,0.019,0.038,0.035,0.057,0.053c0.056-0.082,0.114-0.162,0.168-0.245
			l2.729-4.253l-1.169-1.038c-2.269-2.017-5.193-3.126-8.233-3.126c-0.829,0-1.5-0.67-1.5-1.494c0-0.826,0.671-1.494,1.5-1.494
			c3.776,0,7.408,1.379,10.228,3.883l0.81,0.721l1.822-2.817c0.772-1.203,1.195-2.597,1.195-4.024c0-0.007,0-0.013,0-0.02
			L43.485,157.754z M31.146,158.005h-1.743c-0.828,0-1.499-0.669-1.499-1.494s0.671-1.493,1.499-1.493h1.743
			c2.905,0,5.27-2.353,5.27-5.248c0-0.826,0.671-1.492,1.5-1.492c0.828,0,1.499,0.666,1.499,1.49
			C39.414,154.313,35.705,158.005,31.146,158.005z"/>
	</g>
</g>
</svg>
