<?xml version="1.0" encoding="utf-8"?>
<!-- Generator: Adobe Illustrator 16.0.3, SVG Export Plug-In . SVG Version: 6.00 Build 0)  -->
<!DOCTYPE svg PUBLIC "-//W3C//DTD SVG 1.1//EN" "http://www.w3.org/Graphics/SVG/1.1/DTD/svg11.dtd">
<svg version="1.1" id="Layer_1" xmlns="http://www.w3.org/2000/svg" xmlns:xlink="http://www.w3.org/1999/xlink" x="0px" y="0px"
	 width="185px" height="188px" viewBox="0 0 185 188" enable-background="new 0 0 185 188" xml:space="preserve">
<g>
	<g enable-background="new    ">
		<path fill="#5D5D5D" d="M55.033,18.27l3.102,0.938c-0.208,0.87-0.537,1.597-0.984,2.18c-0.448,0.583-1.004,1.023-1.668,1.32
			s-1.509,0.445-2.535,0.445c-1.245,0-2.262-0.181-3.051-0.543c-0.789-0.361-1.47-0.998-2.043-1.908
			c-0.573-0.911-0.859-2.077-0.859-3.498c0-1.895,0.504-3.351,1.512-4.368s2.434-1.526,4.277-1.526c1.442,0,2.577,0.292,3.402,0.875
			c0.825,0.583,1.438,1.479,1.84,2.688L54.9,15.566c-0.109-0.349-0.224-0.604-0.344-0.766c-0.198-0.271-0.44-0.479-0.727-0.625
			c-0.287-0.146-0.607-0.219-0.961-0.219c-0.802,0-1.417,0.322-1.844,0.968c-0.323,0.479-0.484,1.23-0.484,2.255
			c0,1.27,0.192,2.14,0.578,2.61c0.385,0.471,0.927,0.706,1.625,0.706c0.677,0,1.188-0.19,1.535-0.57
			C54.625,19.546,54.876,18.993,55.033,18.27z"/>
		<path fill="#5D5D5D" d="M66.894,21.066h-4.018l-0.559,1.891h-3.613l4.305-11.453h3.86l4.304,11.453h-3.706L66.894,21.066z
			 M66.16,18.59l-1.264-4.117l-1.251,4.117H66.16z"/>
		<path fill="#5D5D5D" d="M72.283,11.504h5.883c1.281,0,2.241,0.305,2.879,0.914s0.957,1.477,0.957,2.602
			c0,1.156-0.348,2.06-1.043,2.711s-1.757,0.977-3.184,0.977h-1.938v4.25h-3.555V11.504z M75.837,16.387h0.867
			c0.683,0,1.161-0.118,1.438-0.355s0.414-0.54,0.414-0.91c0-0.359-0.12-0.664-0.359-0.914s-0.69-0.375-1.352-0.375h-1.008V16.387z"
			/>
		<path fill="#5D5D5D" d="M83.861,11.504h6.625c1.104,0,1.952,0.273,2.543,0.82c0.59,0.547,0.887,1.224,0.887,2.031
			c0,0.677-0.211,1.258-0.633,1.742c-0.281,0.323-0.693,0.578-1.235,0.766c0.823,0.198,1.428,0.538,1.817,1.02
			c0.387,0.481,0.582,1.087,0.582,1.816c0,0.594-0.139,1.128-0.414,1.602c-0.277,0.474-0.654,0.849-1.133,1.125
			c-0.297,0.172-0.745,0.297-1.344,0.375c-0.797,0.104-1.325,0.156-1.586,0.156h-6.109V11.504z M87.431,15.996h1.539
			c0.552,0,0.937-0.095,1.152-0.285s0.324-0.465,0.324-0.824c0-0.333-0.108-0.594-0.324-0.781s-0.593-0.281-1.129-0.281h-1.563
			V15.996z M87.431,20.496h1.805c0.609,0,1.039-0.108,1.289-0.324s0.375-0.507,0.375-0.871c0-0.339-0.124-0.61-0.371-0.816
			s-0.681-0.309-1.301-0.309h-1.797V20.496z"/>
		<path fill="#5D5D5D" d="M95.682,19.168l3.367-0.211c0.072,0.547,0.221,0.964,0.445,1.25c0.363,0.464,0.885,0.695,1.563,0.695
			c0.504,0,0.895-0.118,1.168-0.355s0.41-0.512,0.41-0.824c0-0.297-0.131-0.563-0.391-0.797c-0.262-0.234-0.865-0.456-1.813-0.664
			c-1.553-0.349-2.66-0.813-3.32-1.391c-0.668-0.578-1-1.315-1-2.211c0-0.589,0.17-1.145,0.512-1.668
			c0.34-0.523,0.854-0.935,1.539-1.234c0.684-0.3,1.623-0.449,2.816-0.449c1.463,0,2.578,0.272,3.348,0.816
			c0.768,0.544,1.225,1.41,1.371,2.598l-3.336,0.195c-0.09-0.516-0.275-0.891-0.559-1.125c-0.285-0.234-0.676-0.352-1.176-0.352
			c-0.412,0-0.723,0.087-0.93,0.262c-0.209,0.175-0.313,0.387-0.313,0.637c0,0.183,0.086,0.347,0.258,0.492
			c0.166,0.151,0.563,0.292,1.188,0.422c1.547,0.333,2.654,0.671,3.324,1.012c0.668,0.341,1.156,0.765,1.461,1.27
			s0.457,1.07,0.457,1.695c0,0.734-0.203,1.411-0.609,2.031s-0.975,1.09-1.703,1.41c-0.73,0.32-1.648,0.48-2.758,0.48
			c-1.949,0-3.297-0.375-4.047-1.125S95.779,20.324,95.682,19.168z"/>
		<path fill="#5D5D5D" d="M113.15,11.504h4.654l1.795,6.969l1.781-6.969h4.652v11.453h-2.898v-8.734l-2.234,8.734h-2.623
			l-2.229-8.734v8.734h-2.898V11.504z"/>
		<path fill="#5D5D5D" d="M137.291,19.598h-6.375c0.057,0.511,0.195,0.891,0.414,1.141c0.307,0.359,0.707,0.539,1.203,0.539
			c0.313,0,0.609-0.078,0.891-0.234c0.172-0.099,0.355-0.273,0.555-0.523l3.133,0.289c-0.48,0.833-1.059,1.431-1.734,1.793
			c-0.678,0.362-1.648,0.543-2.914,0.543c-1.1,0-1.965-0.155-2.594-0.465c-0.631-0.31-1.152-0.802-1.566-1.477
			s-0.621-1.468-0.621-2.379c0-1.297,0.414-2.347,1.246-3.148c0.83-0.802,1.977-1.203,3.441-1.203c1.188,0,2.125,0.18,2.813,0.539
			s1.211,0.88,1.57,1.563s0.539,1.57,0.539,2.664V19.598z M134.057,18.074c-0.063-0.614-0.229-1.055-0.496-1.32
			c-0.27-0.266-0.621-0.398-1.059-0.398c-0.506,0-0.91,0.2-1.211,0.602c-0.193,0.25-0.316,0.622-0.367,1.117H134.057z"/>
		<path fill="#5D5D5D" d="M147.963,19.598h-6.375c0.057,0.511,0.195,0.891,0.414,1.141c0.307,0.359,0.707,0.539,1.203,0.539
			c0.313,0,0.609-0.078,0.891-0.234c0.172-0.099,0.355-0.273,0.555-0.523l3.133,0.289c-0.48,0.833-1.059,1.431-1.734,1.793
			c-0.678,0.362-1.648,0.543-2.914,0.543c-1.1,0-1.965-0.155-2.594-0.465c-0.631-0.31-1.152-0.802-1.566-1.477
			s-0.621-1.468-0.621-2.379c0-1.297,0.414-2.347,1.246-3.148c0.83-0.802,1.977-1.203,3.441-1.203c1.188,0,2.125,0.18,2.813,0.539
			s1.211,0.88,1.57,1.563s0.539,1.57,0.539,2.664V19.598z M144.729,18.074c-0.063-0.614-0.229-1.055-0.496-1.32
			c-0.27-0.266-0.621-0.398-1.059-0.398c-0.506,0-0.91,0.2-1.211,0.602c-0.193,0.25-0.316,0.622-0.367,1.117H144.729z"/>
		<path fill="#5D5D5D" d="M153.26,11.504v3.156h1.75v2.328h-1.75v2.939c0,0.354,0.033,0.588,0.102,0.701
			c0.104,0.178,0.285,0.266,0.547,0.266c0.234,0,0.563-0.067,0.984-0.203l0.234,2.195c-0.787,0.172-1.521,0.258-2.203,0.258
			c-0.793,0-1.375-0.102-1.75-0.305c-0.375-0.202-0.652-0.511-0.832-0.924c-0.18-0.414-0.27-1.084-0.27-2.01v-2.918H148.9V14.66
			h1.172v-1.523L153.26,11.504z"/>
		<path fill="#5D5D5D" d="M156.643,11.504h3.18v2.164h-3.18V11.504z M156.643,14.66h3.18v8.297h-3.18V14.66z"/>
		<path fill="#5D5D5D" d="M161.854,14.66h2.961v1.352c0.441-0.552,0.891-0.946,1.344-1.184s1.004-0.355,1.656-0.355
			c0.879,0,1.568,0.262,2.066,0.785c0.496,0.523,0.746,1.332,0.746,2.426v5.273h-3.195v-4.563c0-0.521-0.098-0.89-0.289-1.105
			c-0.193-0.216-0.465-0.324-0.813-0.324c-0.387,0-0.699,0.146-0.938,0.438c-0.24,0.292-0.359,0.815-0.359,1.57v3.984h-3.18V14.66z"
			/>
		<path fill="#5D5D5D" d="M178.299,14.66h2.977v7.836l0.008,0.367c0,0.521-0.111,1.017-0.332,1.488
			c-0.223,0.472-0.516,0.853-0.883,1.145s-0.834,0.503-1.398,0.633c-0.566,0.13-1.213,0.195-1.941,0.195
			c-1.668,0-2.813-0.25-3.434-0.75c-0.623-0.5-0.934-1.169-0.934-2.008c0-0.104,0.004-0.245,0.016-0.422l3.086,0.352
			c0.078,0.286,0.197,0.484,0.359,0.594c0.234,0.161,0.527,0.242,0.883,0.242c0.457,0,0.801-0.122,1.027-0.367
			s0.34-0.672,0.34-1.281v-1.258c-0.313,0.37-0.625,0.638-0.938,0.805c-0.49,0.261-1.02,0.391-1.586,0.391
			c-1.109,0-2.006-0.484-2.688-1.453c-0.484-0.688-0.727-1.597-0.727-2.727c0-1.292,0.313-2.276,0.938-2.953
			s1.441-1.016,2.453-1.016c0.645,0,1.178,0.109,1.598,0.328c0.418,0.219,0.811,0.581,1.176,1.086V14.66z M175.307,18.684
			c0,0.599,0.127,1.043,0.383,1.332c0.254,0.289,0.59,0.434,1.008,0.434c0.395,0,0.727-0.149,0.996-0.449
			c0.268-0.3,0.402-0.751,0.402-1.355s-0.141-1.066-0.422-1.387s-0.625-0.48-1.031-0.48s-0.73,0.147-0.973,0.441
			S175.307,18.001,175.307,18.684z"/>
	</g>
	<g enable-background="new    ">
		<path fill="#5D5D5D" d="M52.767,35.504h3.305l4.313,6.336v-6.336h3.336v11.453h-3.336l-4.289-6.289v6.289h-3.328V35.504z"/>
		<path fill="#5D5D5D" d="M65.978,35.504h3.18v2.164h-3.18V35.504z M65.978,38.66h3.18v8.297h-3.18V38.66z"/>
		<path fill="#5D5D5D" d="M71.314,38.66h3.188v8.047c0,1.026-0.074,1.753-0.223,2.18s-0.423,0.773-0.824,1.039
			s-0.974,0.398-1.719,0.398c-0.614,0-1.378-0.091-2.289-0.273l0.477-2.313c0.255,0.052,0.442,0.078,0.563,0.078
			c0.271,0,0.477-0.093,0.617-0.277s0.211-0.554,0.211-1.105V38.66z M71.314,35.504h3.188v2.188h-3.188V35.504z"/>
		<path fill="#5D5D5D" d="M76.541,38.66h2.969v1.211c0.428-0.505,0.859-0.864,1.295-1.078s0.961-0.32,1.576-0.32
			c0.662,0,1.187,0.117,1.573,0.352c0.386,0.234,0.701,0.583,0.946,1.047c0.499-0.542,0.954-0.91,1.365-1.105
			s0.918-0.293,1.521-0.293c0.89,0,1.584,0.265,2.083,0.793s0.749,1.355,0.749,2.48v5.211h-3.188V42.23
			c0-0.375-0.072-0.653-0.218-0.836c-0.213-0.286-0.478-0.43-0.794-0.43c-0.374,0-0.675,0.136-0.903,0.406s-0.343,0.706-0.343,1.305
			v4.281h-3.188v-4.57c0-0.364-0.021-0.612-0.063-0.742c-0.068-0.208-0.186-0.376-0.354-0.504c-0.167-0.128-0.363-0.191-0.588-0.191
			c-0.365,0-0.666,0.138-0.901,0.414s-0.353,0.729-0.353,1.359v4.234h-3.188V38.66z"/>
		<path fill="#5D5D5D" d="M101.729,43.598h-6.375c0.057,0.511,0.195,0.891,0.414,1.141c0.307,0.359,0.707,0.539,1.203,0.539
			c0.313,0,0.609-0.078,0.891-0.234c0.172-0.099,0.355-0.273,0.555-0.523l3.133,0.289c-0.48,0.833-1.059,1.431-1.734,1.793
			c-0.678,0.362-1.648,0.543-2.914,0.543c-1.1,0-1.965-0.155-2.594-0.465c-0.631-0.31-1.152-0.802-1.567-1.477
			c-0.414-0.675-0.621-1.468-0.621-2.379c0-1.297,0.415-2.347,1.247-3.148c0.83-0.802,1.977-1.203,3.441-1.203
			c1.188,0,2.125,0.18,2.813,0.539s1.211,0.88,1.57,1.563s0.539,1.57,0.539,2.664V43.598z M98.494,42.074
			c-0.063-0.614-0.229-1.055-0.496-1.32c-0.27-0.266-0.621-0.398-1.059-0.398c-0.506,0-0.91,0.2-1.211,0.602
			c-0.193,0.25-0.316,0.622-0.367,1.117H98.494z"/>
		<path fill="#5D5D5D" d="M109.361,38.66h2.977v7.836l0.008,0.367c0,0.521-0.111,1.017-0.332,1.488
			c-0.223,0.472-0.516,0.853-0.883,1.145s-0.834,0.503-1.398,0.633c-0.566,0.13-1.213,0.195-1.941,0.195
			c-1.668,0-2.813-0.25-3.434-0.75c-0.623-0.5-0.934-1.169-0.934-2.008c0-0.104,0.004-0.245,0.016-0.422l3.086,0.352
			c0.078,0.286,0.197,0.484,0.359,0.594c0.234,0.161,0.527,0.242,0.883,0.242c0.457,0,0.801-0.122,1.027-0.367
			s0.34-0.672,0.34-1.281v-1.258c-0.313,0.37-0.625,0.638-0.938,0.805c-0.49,0.261-1.02,0.391-1.586,0.391
			c-1.109,0-2.006-0.484-2.688-1.453c-0.484-0.688-0.727-1.597-0.727-2.727c0-1.292,0.313-2.276,0.938-2.953
			s1.441-1.016,2.453-1.016c0.645,0,1.178,0.109,1.598,0.328c0.418,0.219,0.811,0.581,1.176,1.086V38.66z M106.369,42.684
			c0,0.599,0.127,1.043,0.383,1.332c0.254,0.289,0.59,0.434,1.008,0.434c0.395,0,0.727-0.149,0.996-0.449
			c0.268-0.3,0.402-0.751,0.402-1.355s-0.141-1.066-0.422-1.387s-0.625-0.48-1.031-0.48s-0.73,0.147-0.973,0.441
			S106.369,42.001,106.369,42.684z"/>
		<path fill="#5D5D5D" d="M123.471,43.598h-6.375c0.057,0.511,0.195,0.891,0.414,1.141c0.307,0.359,0.707,0.539,1.203,0.539
			c0.313,0,0.609-0.078,0.891-0.234c0.172-0.099,0.355-0.273,0.555-0.523l3.133,0.289c-0.48,0.833-1.059,1.431-1.734,1.793
			c-0.678,0.362-1.648,0.543-2.914,0.543c-1.1,0-1.965-0.155-2.594-0.465c-0.631-0.31-1.152-0.802-1.566-1.477
			s-0.621-1.468-0.621-2.379c0-1.297,0.414-2.347,1.246-3.148c0.83-0.802,1.977-1.203,3.441-1.203c1.188,0,2.125,0.18,2.813,0.539
			s1.211,0.88,1.57,1.563s0.539,1.57,0.539,2.664V43.598z M120.236,42.074c-0.063-0.614-0.229-1.055-0.496-1.32
			c-0.27-0.266-0.621-0.398-1.059-0.398c-0.506,0-0.91,0.2-1.211,0.602c-0.193,0.25-0.316,0.622-0.367,1.117H120.236z"/>
		<path fill="#5D5D5D" d="M124.932,38.66h2.961v1.352c0.441-0.552,0.891-0.946,1.344-1.184s1.004-0.355,1.656-0.355
			c0.879,0,1.568,0.262,2.066,0.785c0.496,0.523,0.746,1.332,0.746,2.426v5.273h-3.195v-4.563c0-0.521-0.098-0.89-0.289-1.105
			c-0.193-0.216-0.465-0.324-0.813-0.324c-0.387,0-0.699,0.146-0.938,0.438c-0.24,0.292-0.359,0.815-0.359,1.57v3.984h-3.18V38.66z"
			/>
		<path fill="#5D5D5D" d="M149.947,46.957H140.4c0.109-0.942,0.441-1.829,0.996-2.66s1.594-1.812,3.121-2.941
			c0.932-0.692,1.527-1.219,1.789-1.578c0.26-0.359,0.391-0.7,0.391-1.023c0-0.349-0.129-0.647-0.387-0.895
			s-0.582-0.371-0.973-0.371c-0.406,0-0.738,0.128-0.996,0.383s-0.432,0.706-0.52,1.352l-3.188-0.258
			c0.125-0.896,0.354-1.595,0.688-2.098c0.332-0.503,0.803-0.888,1.41-1.156c0.605-0.269,1.445-0.402,2.52-0.402
			c1.119,0,1.99,0.128,2.613,0.383c0.621,0.255,1.111,0.647,1.469,1.176c0.355,0.528,0.535,1.121,0.535,1.777
			c0,0.698-0.205,1.364-0.613,2c-0.41,0.636-1.152,1.333-2.23,2.094c-0.641,0.442-1.07,0.753-1.285,0.93
			c-0.217,0.177-0.471,0.409-0.762,0.695h4.969V46.957z"/>
		<path fill="#5D5D5D" d="M151.307,41.184c0-2.177,0.391-3.7,1.176-4.57c0.783-0.87,1.977-1.305,3.582-1.305
			c0.77,0,1.402,0.095,1.898,0.285c0.494,0.19,0.898,0.438,1.211,0.742s0.559,0.625,0.738,0.961s0.324,0.728,0.434,1.176
			c0.213,0.854,0.32,1.745,0.32,2.672c0,2.078-0.352,3.599-1.055,4.563s-1.914,1.445-3.633,1.445c-0.965,0-1.742-0.153-2.336-0.461
			s-1.082-0.758-1.461-1.352c-0.277-0.422-0.492-0.999-0.645-1.73C151.383,42.878,151.307,42.069,151.307,41.184z M154.463,41.191
			c0,1.458,0.129,2.454,0.387,2.988s0.631,0.801,1.121,0.801c0.322,0,0.602-0.113,0.84-0.34c0.236-0.227,0.41-0.585,0.523-1.074
			c0.111-0.489,0.168-1.253,0.168-2.289c0-1.521-0.129-2.543-0.387-3.066s-0.645-0.785-1.16-0.785c-0.527,0-0.906,0.267-1.141,0.801
			S154.463,39.749,154.463,41.191z"/>
		<path fill="#5D5D5D" d="M169.189,35.309v11.648h-3.219v-7.633c-0.521,0.396-1.025,0.716-1.512,0.961
			c-0.488,0.245-1.098,0.479-1.832,0.703v-2.609c1.082-0.349,1.924-0.769,2.523-1.258c0.598-0.489,1.066-1.094,1.406-1.813H169.189z
			"/>
		<path fill="#5D5D5D" d="M174.564,40.801c-0.5-0.266-0.865-0.563-1.094-0.891c-0.313-0.448-0.469-0.964-0.469-1.547
			c0-0.958,0.449-1.742,1.352-2.352c0.703-0.469,1.633-0.703,2.789-0.703c1.531,0,2.662,0.292,3.395,0.875
			c0.73,0.583,1.098,1.317,1.098,2.203c0,0.516-0.146,0.997-0.438,1.445c-0.219,0.333-0.563,0.656-1.031,0.969
			c0.619,0.297,1.082,0.69,1.387,1.18s0.457,1.031,0.457,1.625c0,0.573-0.133,1.108-0.395,1.605
			c-0.264,0.497-0.586,0.882-0.969,1.152s-0.859,0.47-1.43,0.598s-1.18,0.191-1.824,0.191c-1.215,0-2.141-0.144-2.781-0.43
			s-1.129-0.708-1.461-1.266c-0.334-0.558-0.5-1.18-0.5-1.867c0-0.672,0.156-1.241,0.469-1.707S173.912,41.056,174.564,40.801z
			 M175.822,43.48c0,0.505,0.152,0.918,0.461,1.238c0.307,0.32,0.658,0.48,1.055,0.48c0.379,0,0.721-0.163,1.023-0.488
			c0.301-0.325,0.453-0.738,0.453-1.238c0-0.505-0.152-0.919-0.457-1.242s-0.658-0.484-1.059-0.484
			c-0.396,0-0.742,0.156-1.035,0.469C175.969,42.527,175.822,42.949,175.822,43.48z M175.994,38.551
			c0,0.396,0.123,0.715,0.371,0.957c0.246,0.242,0.576,0.363,0.988,0.363c0.363,0,0.664-0.12,0.898-0.359s0.352-0.55,0.352-0.93
			c0-0.396-0.123-0.718-0.367-0.965c-0.246-0.247-0.559-0.371-0.938-0.371c-0.387,0-0.699,0.121-0.941,0.363
			S175.994,38.165,175.994,38.551z"/>
	</g>
</g>
<g>
	<g>
		<path fill="#D80027" d="M16.69,6.232h-2.07c-1.395,0-2.726,0.348-3.874,1.039l4.105,3.492c0.629,0.538,0.702,1.472,0.163,2.099
			c-0.296,0.345-0.716,0.517-1.139,0.517c-0.345,0-0.692-0.12-0.975-0.362L8.69,9.419c-0.054-0.047-0.104-0.098-0.149-0.15
			C8.453,9.39,8.368,9.514,8.288,9.641l-2.21,3.482c4.275,0.787,7.896,3.85,9.285,8.111c0.256,0.785-0.175,1.628-0.962,1.883
			c-0.154,0.05-0.31,0.074-0.463,0.074c-0.632,0-1.22-0.401-1.425-1.033c-1.176-3.606-4.478-6.068-8.211-6.237l-2.124,3.323
			C1.417,20.441,1,21.822,1,23.238v1.806c0,0.361,0.13,0.713,0.345,1.004l0.962,1.299l-0.98,1.493
			c-0.179,0.271-0.289,0.589-0.293,0.915L1,31.575c0,0.007,0,0.013,0,0.019c0,1.43,0.423,2.821,1.196,4.025l1.766,2.739l0.726-0.642
			c2.82-2.505,6.454-3.883,10.23-3.883c0.828,0,1.5,0.668,1.5,1.494c0,0.825-0.67,1.494-1.499,1.494c-3.04,0-5.964,1.11-8.233,3.126
			l-1.082,0.961l2.779,4.33c0.037,0.057,0.078,0.111,0.116,0.168l4.183-3.576c0.628-0.538,1.575-0.464,2.114,0.163
			c0.539,0.625,0.466,1.569-0.163,2.106l-3.983,3.438c1.187,0.759,2.582,1.213,4.046,1.213h2.072c1.47,0,2.871-0.576,3.992-1.503
			V7.664C19.626,6.694,18.193,6.232,16.69,6.232z M14.981,30.005h-1.743c-4.56,0-8.269-3.692-8.269-8.236
			c0-0.825,0.672-1.492,1.5-1.492c0.828,0,1.499,0.665,1.499,1.49c0,2.896,2.365,5.25,5.27,5.25h1.743
			c0.828,0,1.499,0.668,1.499,1.494C16.48,29.336,15.809,30.005,14.981,30.005z"/>
	</g>
</g>
<g>
	<g>
		<path fill="#D80027" d="M43.485,29.754c-0.003-0.325-0.108-0.643-0.287-0.915l-0.989-1.492l0.968-1.299
			c0.214-0.292,0.343-0.643,0.343-1.004v-1.807c0-1.416-0.416-2.796-1.176-3.993l-2.12-3.33c-3.79,0.115-7.158,2.595-8.347,6.243
			c-0.207,0.631-0.795,1.033-1.427,1.033c-0.154,0-0.311-0.023-0.466-0.073c-0.787-0.255-1.219-1.098-0.962-1.883
			c1.403-4.302,5.08-7.382,9.408-8.133L36.234,9.64c-0.101-0.158-0.208-0.31-0.318-0.458c-0.064,0.085-0.138,0.164-0.221,0.236
			l-4.21,3.599c-0.283,0.242-0.63,0.359-0.976,0.359c-0.422,0-0.842-0.176-1.138-0.521c-0.539-0.626-0.467-1.569,0.161-2.107
			l4.162-3.523c-1.129-0.661-2.43-0.992-3.792-0.992H27.83c-1.503,0-2.936,0.462-4.071,1.431v39.585
			c1.122,0.927,2.522,1.503,3.993,1.503h2.071c1.433,0,2.799-0.435,3.968-1.163l-4.042-3.47c-0.628-0.538-0.702-1.49-0.163-2.117
			c0.539-0.625,1.485-0.703,2.114-0.166l4.21,3.596c0.021,0.018,0.038,0.035,0.057,0.053c0.056-0.082,0.114-0.163,0.168-0.246
			l2.729-4.252l-1.169-1.039c-2.269-2.016-5.193-3.126-8.233-3.126c-0.829,0-1.5-0.669-1.5-1.494c0-0.826,0.671-1.494,1.5-1.494
			c3.776,0,7.408,1.378,10.228,3.883l0.81,0.719l1.822-2.817c0.772-1.204,1.195-2.596,1.195-4.025c0-0.006,0-0.012,0-0.019
			L43.485,29.754z M31.146,30.005h-1.743c-0.828,0-1.499-0.668-1.499-1.494c0-0.825,0.671-1.494,1.499-1.494h1.743
			c2.905,0,5.27-2.352,5.27-5.248c0-0.825,0.671-1.492,1.5-1.492c0.828,0,1.499,0.665,1.499,1.49
			C39.414,26.313,35.705,30.005,31.146,30.005z"/>
	</g>
</g>
<g enable-background="new    ">
	<path fill="#4D4D4D" d="M55.033,83.27l3.102,0.938c-0.208,0.87-0.537,1.597-0.984,2.18c-0.448,0.583-1.004,1.023-1.668,1.32
		s-1.509,0.445-2.535,0.445c-1.245,0-2.262-0.181-3.051-0.543c-0.789-0.361-1.47-0.998-2.043-1.908
		c-0.573-0.911-0.859-2.077-0.859-3.498c0-1.895,0.504-3.351,1.512-4.368s2.434-1.526,4.277-1.526c1.442,0,2.577,0.292,3.402,0.875
		c0.825,0.583,1.438,1.479,1.84,2.688L54.9,80.566c-0.109-0.349-0.224-0.604-0.344-0.766c-0.198-0.271-0.44-0.479-0.727-0.625
		c-0.287-0.146-0.607-0.219-0.961-0.219c-0.802,0-1.417,0.322-1.844,0.968c-0.323,0.479-0.484,1.23-0.484,2.255
		c0,1.27,0.192,2.14,0.578,2.61c0.385,0.471,0.927,0.706,1.625,0.706c0.677,0,1.188-0.19,1.535-0.57
		C54.625,84.546,54.876,83.993,55.033,83.27z"/>
	<path fill="#4D4D4D" d="M66.894,86.066h-4.018l-0.559,1.891h-3.613l4.305-11.453h3.86l4.304,11.453h-3.706L66.894,86.066z
		 M66.16,83.59l-1.264-4.117l-1.251,4.117H66.16z"/>
	<path fill="#4D4D4D" d="M72.283,76.504h5.883c1.281,0,2.241,0.305,2.879,0.914s0.957,1.477,0.957,2.602
		c0,1.156-0.348,2.06-1.043,2.711s-1.757,0.977-3.184,0.977h-1.938v4.25h-3.555V76.504z M75.837,81.387h0.867
		c0.683,0,1.161-0.118,1.438-0.355s0.414-0.54,0.414-0.91c0-0.359-0.12-0.664-0.359-0.914s-0.69-0.375-1.352-0.375h-1.008V81.387z"
		/>
	<path fill="#4D4D4D" d="M83.861,76.504h6.625c1.104,0,1.952,0.273,2.543,0.82c0.59,0.547,0.887,1.224,0.887,2.031
		c0,0.677-0.211,1.258-0.633,1.742c-0.281,0.323-0.693,0.578-1.235,0.766c0.823,0.198,1.428,0.538,1.817,1.02
		c0.387,0.481,0.582,1.087,0.582,1.816c0,0.594-0.139,1.128-0.414,1.602c-0.277,0.474-0.654,0.849-1.133,1.125
		c-0.297,0.172-0.745,0.297-1.344,0.375c-0.797,0.104-1.325,0.156-1.586,0.156h-6.109V76.504z M87.431,80.996h1.539
		c0.552,0,0.937-0.095,1.152-0.285s0.324-0.465,0.324-0.824c0-0.333-0.108-0.594-0.324-0.781s-0.593-0.281-1.129-0.281h-1.563
		V80.996z M87.431,85.496h1.805c0.609,0,1.039-0.108,1.289-0.324s0.375-0.507,0.375-0.871c0-0.339-0.124-0.61-0.371-0.816
		s-0.681-0.309-1.301-0.309h-1.797V85.496z"/>
	<path fill="#4D4D4D" d="M95.682,84.168l3.367-0.211c0.072,0.547,0.221,0.964,0.445,1.25c0.363,0.464,0.885,0.695,1.563,0.695
		c0.504,0,0.895-0.118,1.168-0.355s0.41-0.512,0.41-0.824c0-0.297-0.131-0.563-0.391-0.797c-0.262-0.234-0.865-0.456-1.813-0.664
		c-1.553-0.349-2.66-0.813-3.32-1.391c-0.668-0.578-1-1.315-1-2.211c0-0.589,0.17-1.145,0.512-1.668
		c0.34-0.523,0.854-0.935,1.539-1.234c0.684-0.3,1.623-0.449,2.816-0.449c1.463,0,2.578,0.272,3.348,0.816
		c0.768,0.544,1.225,1.41,1.371,2.598l-3.336,0.195c-0.09-0.516-0.275-0.891-0.559-1.125c-0.285-0.234-0.676-0.352-1.176-0.352
		c-0.412,0-0.723,0.087-0.93,0.262c-0.209,0.175-0.313,0.387-0.313,0.637c0,0.183,0.086,0.347,0.258,0.492
		c0.166,0.151,0.563,0.292,1.188,0.422c1.547,0.333,2.654,0.671,3.324,1.012c0.668,0.341,1.156,0.765,1.461,1.27
		s0.457,1.07,0.457,1.695c0,0.734-0.203,1.411-0.609,2.031s-0.975,1.09-1.703,1.41c-0.73,0.32-1.648,0.48-2.758,0.48
		c-1.949,0-3.297-0.375-4.047-1.125S95.779,85.324,95.682,84.168z"/>
	<path fill="#4D4D4D" d="M113.15,76.504h4.654l1.795,6.969l1.781-6.969h4.652v11.453h-2.898v-8.734l-2.234,8.734h-2.623
		l-2.229-8.734v8.734h-2.898V76.504z"/>
	<path fill="#4D4D4D" d="M137.291,84.598h-6.375c0.057,0.511,0.195,0.891,0.414,1.141c0.307,0.359,0.707,0.539,1.203,0.539
		c0.313,0,0.609-0.078,0.891-0.234c0.172-0.099,0.355-0.273,0.555-0.523l3.133,0.289c-0.48,0.833-1.059,1.431-1.734,1.793
		c-0.678,0.362-1.648,0.543-2.914,0.543c-1.1,0-1.965-0.155-2.594-0.465c-0.631-0.31-1.152-0.802-1.566-1.477
		s-0.621-1.468-0.621-2.379c0-1.297,0.414-2.347,1.246-3.148c0.83-0.802,1.977-1.203,3.441-1.203c1.188,0,2.125,0.18,2.813,0.539
		s1.211,0.88,1.57,1.563s0.539,1.57,0.539,2.664V84.598z M134.057,83.074c-0.063-0.614-0.229-1.055-0.496-1.32
		c-0.27-0.266-0.621-0.398-1.059-0.398c-0.506,0-0.91,0.2-1.211,0.602c-0.193,0.25-0.316,0.622-0.367,1.117H134.057z"/>
	<path fill="#4D4D4D" d="M147.963,84.598h-6.375c0.057,0.511,0.195,0.891,0.414,1.141c0.307,0.359,0.707,0.539,1.203,0.539
		c0.313,0,0.609-0.078,0.891-0.234c0.172-0.099,0.355-0.273,0.555-0.523l3.133,0.289c-0.48,0.833-1.059,1.431-1.734,1.793
		c-0.678,0.362-1.648,0.543-2.914,0.543c-1.1,0-1.965-0.155-2.594-0.465c-0.631-0.31-1.152-0.802-1.566-1.477
		s-0.621-1.468-0.621-2.379c0-1.297,0.414-2.347,1.246-3.148c0.83-0.802,1.977-1.203,3.441-1.203c1.188,0,2.125,0.18,2.813,0.539
		s1.211,0.88,1.57,1.563s0.539,1.57,0.539,2.664V84.598z M144.729,83.074c-0.063-0.614-0.229-1.055-0.496-1.32
		c-0.27-0.266-0.621-0.398-1.059-0.398c-0.506,0-0.91,0.2-1.211,0.602c-0.193,0.25-0.316,0.622-0.367,1.117H144.729z"/>
	<path fill="#4D4D4D" d="M153.26,76.504v3.156h1.75v2.328h-1.75v2.939c0,0.354,0.033,0.588,0.102,0.701
		c0.104,0.178,0.285,0.266,0.547,0.266c0.234,0,0.563-0.067,0.984-0.203l0.234,2.195c-0.787,0.172-1.521,0.258-2.203,0.258
		c-0.793,0-1.375-0.102-1.75-0.305c-0.375-0.202-0.652-0.511-0.832-0.924c-0.18-0.414-0.27-1.084-0.27-2.01v-2.918H148.9V79.66
		h1.172v-1.523L153.26,76.504z"/>
	<path fill="#4D4D4D" d="M156.643,76.504h3.18v2.164h-3.18V76.504z M156.643,79.66h3.18v8.297h-3.18V79.66z"/>
	<path fill="#4D4D4D" d="M161.854,79.66h2.961v1.352c0.441-0.552,0.891-0.946,1.344-1.184s1.004-0.355,1.656-0.355
		c0.879,0,1.568,0.262,2.066,0.785c0.496,0.523,0.746,1.332,0.746,2.426v5.273h-3.195v-4.563c0-0.521-0.098-0.89-0.289-1.105
		c-0.193-0.216-0.465-0.324-0.813-0.324c-0.387,0-0.699,0.146-0.938,0.438c-0.24,0.292-0.359,0.815-0.359,1.57v3.984h-3.18V79.66z"
		/>
	<path fill="#4D4D4D" d="M178.299,79.66h2.977v7.836l0.008,0.367c0,0.521-0.111,1.017-0.332,1.488
		c-0.223,0.472-0.516,0.853-0.883,1.145s-0.834,0.503-1.398,0.633c-0.566,0.13-1.213,0.195-1.941,0.195
		c-1.668,0-2.813-0.25-3.434-0.75c-0.623-0.5-0.934-1.169-0.934-2.008c0-0.104,0.004-0.245,0.016-0.422l3.086,0.352
		c0.078,0.286,0.197,0.484,0.359,0.594c0.234,0.161,0.527,0.242,0.883,0.242c0.457,0,0.801-0.122,1.027-0.367s0.34-0.672,0.34-1.281
		v-1.258c-0.313,0.37-0.625,0.638-0.938,0.805c-0.49,0.261-1.02,0.391-1.586,0.391c-1.109,0-2.006-0.484-2.688-1.453
		c-0.484-0.688-0.727-1.597-0.727-2.727c0-1.292,0.313-2.276,0.938-2.953s1.441-1.016,2.453-1.016c0.645,0,1.178,0.109,1.598,0.328
		c0.418,0.219,0.811,0.581,1.176,1.086V79.66z M175.307,83.684c0,0.599,0.127,1.043,0.383,1.332c0.254,0.289,0.59,0.434,1.008,0.434
		c0.395,0,0.727-0.149,0.996-0.449c0.268-0.3,0.402-0.751,0.402-1.355s-0.141-1.066-0.422-1.387s-0.625-0.48-1.031-0.48
		s-0.73,0.147-0.973,0.441S175.307,83.001,175.307,83.684z"/>
</g>
<g enable-background="new    ">
	<path fill="#4D4D4D" d="M52.767,100.504h3.305l4.313,6.336v-6.336h3.336v11.453h-3.336l-4.289-6.289v6.289h-3.328V100.504z"/>
	<path fill="#4D4D4D" d="M65.978,100.504h3.18v2.164h-3.18V100.504z M65.978,103.66h3.18v8.297h-3.18V103.66z"/>
	<path fill="#4D4D4D" d="M71.314,103.66h3.188v8.047c0,1.026-0.074,1.753-0.223,2.18s-0.423,0.773-0.824,1.039
		s-0.974,0.398-1.719,0.398c-0.614,0-1.378-0.091-2.289-0.273l0.477-2.313c0.255,0.052,0.442,0.078,0.563,0.078
		c0.271,0,0.477-0.093,0.617-0.277s0.211-0.554,0.211-1.105V103.66z M71.314,100.504h3.188v2.188h-3.188V100.504z"/>
	<path fill="#4D4D4D" d="M76.541,103.66h2.969v1.211c0.428-0.505,0.859-0.864,1.295-1.078s0.961-0.32,1.576-0.32
		c0.662,0,1.187,0.117,1.573,0.352c0.386,0.234,0.701,0.583,0.946,1.047c0.499-0.542,0.954-0.91,1.365-1.105
		s0.918-0.293,1.521-0.293c0.89,0,1.584,0.265,2.083,0.793s0.749,1.355,0.749,2.48v5.211h-3.188v-4.727
		c0-0.375-0.072-0.653-0.218-0.836c-0.213-0.286-0.478-0.43-0.794-0.43c-0.374,0-0.675,0.136-0.903,0.406s-0.343,0.706-0.343,1.305
		v4.281h-3.188v-4.57c0-0.364-0.021-0.612-0.063-0.742c-0.068-0.208-0.186-0.376-0.354-0.504c-0.167-0.128-0.363-0.191-0.588-0.191
		c-0.365,0-0.666,0.138-0.901,0.414s-0.353,0.729-0.353,1.359v4.234h-3.188V103.66z"/>
	<path fill="#4D4D4D" d="M101.729,108.598h-6.375c0.057,0.511,0.195,0.891,0.414,1.141c0.307,0.359,0.707,0.539,1.203,0.539
		c0.313,0,0.609-0.078,0.891-0.234c0.172-0.099,0.355-0.273,0.555-0.523l3.133,0.289c-0.48,0.833-1.059,1.431-1.734,1.793
		c-0.678,0.362-1.648,0.543-2.914,0.543c-1.1,0-1.965-0.155-2.594-0.465c-0.631-0.31-1.152-0.802-1.567-1.477
		c-0.414-0.675-0.621-1.468-0.621-2.379c0-1.297,0.415-2.347,1.247-3.148c0.83-0.802,1.977-1.203,3.441-1.203
		c1.188,0,2.125,0.18,2.813,0.539s1.211,0.88,1.57,1.563s0.539,1.57,0.539,2.664V108.598z M98.494,107.074
		c-0.063-0.614-0.229-1.055-0.496-1.32c-0.27-0.266-0.621-0.398-1.059-0.398c-0.506,0-0.91,0.2-1.211,0.602
		c-0.193,0.25-0.316,0.622-0.367,1.117H98.494z"/>
	<path fill="#4D4D4D" d="M109.361,103.66h2.977v7.836l0.008,0.367c0,0.521-0.111,1.017-0.332,1.488
		c-0.223,0.472-0.516,0.853-0.883,1.145s-0.834,0.503-1.398,0.633c-0.566,0.13-1.213,0.195-1.941,0.195
		c-1.668,0-2.813-0.25-3.434-0.75c-0.623-0.5-0.934-1.169-0.934-2.008c0-0.104,0.004-0.245,0.016-0.422l3.086,0.352
		c0.078,0.286,0.197,0.484,0.359,0.594c0.234,0.161,0.527,0.242,0.883,0.242c0.457,0,0.801-0.122,1.027-0.367s0.34-0.672,0.34-1.281
		v-1.258c-0.313,0.37-0.625,0.638-0.938,0.805c-0.49,0.261-1.02,0.391-1.586,0.391c-1.109,0-2.006-0.484-2.688-1.453
		c-0.484-0.688-0.727-1.597-0.727-2.727c0-1.292,0.313-2.276,0.938-2.953s1.441-1.016,2.453-1.016c0.645,0,1.178,0.109,1.598,0.328
		c0.418,0.219,0.811,0.581,1.176,1.086V103.66z M106.369,107.684c0,0.599,0.127,1.043,0.383,1.332
		c0.254,0.289,0.59,0.434,1.008,0.434c0.395,0,0.727-0.149,0.996-0.449c0.268-0.3,0.402-0.751,0.402-1.355s-0.141-1.066-0.422-1.387
		s-0.625-0.48-1.031-0.48s-0.73,0.147-0.973,0.441S106.369,107.001,106.369,107.684z"/>
	<path fill="#4D4D4D" d="M123.471,108.598h-6.375c0.057,0.511,0.195,0.891,0.414,1.141c0.307,0.359,0.707,0.539,1.203,0.539
		c0.313,0,0.609-0.078,0.891-0.234c0.172-0.099,0.355-0.273,0.555-0.523l3.133,0.289c-0.48,0.833-1.059,1.431-1.734,1.793
		c-0.678,0.362-1.648,0.543-2.914,0.543c-1.1,0-1.965-0.155-2.594-0.465c-0.631-0.31-1.152-0.802-1.566-1.477
		s-0.621-1.468-0.621-2.379c0-1.297,0.414-2.347,1.246-3.148c0.83-0.802,1.977-1.203,3.441-1.203c1.188,0,2.125,0.18,2.813,0.539
		s1.211,0.88,1.57,1.563s0.539,1.57,0.539,2.664V108.598z M120.236,107.074c-0.063-0.614-0.229-1.055-0.496-1.32
		c-0.27-0.266-0.621-0.398-1.059-0.398c-0.506,0-0.91,0.2-1.211,0.602c-0.193,0.25-0.316,0.622-0.367,1.117H120.236z"/>
	<path fill="#4D4D4D" d="M124.932,103.66h2.961v1.352c0.441-0.552,0.891-0.946,1.344-1.184s1.004-0.355,1.656-0.355
		c0.879,0,1.568,0.262,2.066,0.785c0.496,0.523,0.746,1.332,0.746,2.426v5.273h-3.195v-4.563c0-0.521-0.098-0.89-0.289-1.105
		c-0.193-0.216-0.465-0.324-0.813-0.324c-0.387,0-0.699,0.146-0.938,0.438c-0.24,0.292-0.359,0.815-0.359,1.57v3.984h-3.18V103.66z"
		/>
	<path fill="#4D4D4D" d="M149.947,111.957H140.4c0.109-0.942,0.441-1.829,0.996-2.66s1.594-1.812,3.121-2.941
		c0.932-0.692,1.527-1.219,1.789-1.578c0.26-0.359,0.391-0.7,0.391-1.023c0-0.349-0.129-0.647-0.387-0.895s-0.582-0.371-0.973-0.371
		c-0.406,0-0.738,0.128-0.996,0.383s-0.432,0.706-0.52,1.352l-3.188-0.258c0.125-0.896,0.354-1.595,0.688-2.098
		c0.332-0.503,0.803-0.888,1.41-1.156c0.605-0.269,1.445-0.402,2.52-0.402c1.119,0,1.99,0.128,2.613,0.383
		c0.621,0.255,1.111,0.647,1.469,1.176c0.355,0.528,0.535,1.121,0.535,1.777c0,0.698-0.205,1.364-0.613,2
		c-0.41,0.636-1.152,1.333-2.23,2.094c-0.641,0.442-1.07,0.753-1.285,0.93c-0.217,0.177-0.471,0.409-0.762,0.695h4.969V111.957z"/>
	<path fill="#4D4D4D" d="M151.307,106.184c0-2.177,0.391-3.7,1.176-4.57c0.783-0.87,1.977-1.305,3.582-1.305
		c0.77,0,1.402,0.095,1.898,0.285c0.494,0.19,0.898,0.438,1.211,0.742s0.559,0.625,0.738,0.961s0.324,0.728,0.434,1.176
		c0.213,0.854,0.32,1.745,0.32,2.672c0,2.078-0.352,3.599-1.055,4.563s-1.914,1.445-3.633,1.445c-0.965,0-1.742-0.153-2.336-0.461
		s-1.082-0.758-1.461-1.352c-0.277-0.422-0.492-0.999-0.645-1.73C151.383,107.878,151.307,107.069,151.307,106.184z
		 M154.463,106.191c0,1.458,0.129,2.454,0.387,2.988s0.631,0.801,1.121,0.801c0.322,0,0.602-0.113,0.84-0.34
		c0.236-0.227,0.41-0.585,0.523-1.074c0.111-0.489,0.168-1.253,0.168-2.289c0-1.521-0.129-2.543-0.387-3.066
		s-0.645-0.785-1.16-0.785c-0.527,0-0.906,0.267-1.141,0.801S154.463,104.749,154.463,106.191z"/>
	<path fill="#4D4D4D" d="M169.189,100.309v11.648h-3.219v-7.633c-0.521,0.396-1.025,0.716-1.512,0.961
		c-0.488,0.245-1.098,0.479-1.832,0.703v-2.609c1.082-0.349,1.924-0.769,2.523-1.258c0.598-0.489,1.066-1.094,1.406-1.813H169.189z"
		/>
	<path fill="#4D4D4D" d="M174.564,105.801c-0.5-0.266-0.865-0.563-1.094-0.891c-0.313-0.448-0.469-0.964-0.469-1.547
		c0-0.958,0.449-1.742,1.352-2.352c0.703-0.469,1.633-0.703,2.789-0.703c1.531,0,2.662,0.292,3.395,0.875
		c0.73,0.583,1.098,1.317,1.098,2.203c0,0.516-0.146,0.997-0.438,1.445c-0.219,0.333-0.563,0.656-1.031,0.969
		c0.619,0.297,1.082,0.69,1.387,1.18s0.457,1.031,0.457,1.625c0,0.573-0.133,1.108-0.395,1.605
		c-0.264,0.497-0.586,0.882-0.969,1.152s-0.859,0.47-1.43,0.598s-1.18,0.191-1.824,0.191c-1.215,0-2.141-0.144-2.781-0.43
		s-1.129-0.708-1.461-1.266c-0.334-0.558-0.5-1.18-0.5-1.867c0-0.672,0.156-1.241,0.469-1.707S173.912,106.056,174.564,105.801z
		 M175.822,108.48c0,0.505,0.152,0.918,0.461,1.238c0.307,0.32,0.658,0.48,1.055,0.48c0.379,0,0.721-0.163,1.023-0.488
		c0.301-0.325,0.453-0.738,0.453-1.238c0-0.505-0.152-0.919-0.457-1.242s-0.658-0.484-1.059-0.484c-0.396,0-0.742,0.156-1.035,0.469
		C175.969,107.527,175.822,107.949,175.822,108.48z M175.994,103.551c0,0.396,0.123,0.715,0.371,0.957
		c0.246,0.242,0.576,0.363,0.988,0.363c0.363,0,0.664-0.12,0.898-0.359s0.352-0.55,0.352-0.93c0-0.396-0.123-0.718-0.367-0.965
		c-0.246-0.247-0.559-0.371-0.938-0.371c-0.387,0-0.699,0.121-0.941,0.363S175.994,103.165,175.994,103.551z"/>
</g>
<g>
	<g>
		<g>
			<path fill="#AAAAAA" d="M16.69,71.232h-2.07c-1.395,0-2.726,0.348-3.874,1.039l4.105,3.492c0.629,0.538,0.702,1.472,0.163,2.099
				c-0.296,0.345-0.716,0.517-1.139,0.517c-0.345,0-0.692-0.12-0.975-0.362l-4.21-3.599c-0.054-0.047-0.104-0.098-0.149-0.15
				c-0.088,0.121-0.172,0.245-0.253,0.372l-2.21,3.482c4.275,0.787,7.896,3.85,9.285,8.111c0.256,0.785-0.175,1.628-0.962,1.883
				c-0.154,0.05-0.31,0.074-0.463,0.074c-0.632,0-1.22-0.401-1.425-1.033c-1.176-3.606-4.478-6.068-8.211-6.237l-2.124,3.323
				C1.417,85.441,1,86.822,1,88.238v1.806c0,0.361,0.13,0.713,0.345,1.004l0.962,1.299l-0.98,1.493
				c-0.179,0.271-0.289,0.59-0.293,0.914L1,96.575c0,0.007,0,0.013,0,0.019c0,1.43,0.423,2.822,1.196,4.025l1.766,2.74l0.726-0.646
				c2.82-2.504,6.454-3.883,10.23-3.883c0.828,0,1.5,0.668,1.5,1.494c0,0.82-0.67,1.49-1.499,1.49c-3.04,0-5.964,1.111-8.233,3.127
				l-1.082,0.963l2.779,4.328c0.037,0.061,0.078,0.111,0.116,0.17l4.183-3.574c0.628-0.537,1.575-0.465,2.114,0.162
				c0.539,0.626,0.466,1.566-0.163,2.104l-3.983,3.438c1.187,0.759,2.582,1.213,4.046,1.213h2.072c1.47,0,2.871-0.576,3.992-1.503
				v-39.58C19.626,71.694,18.193,71.232,16.69,71.232z M14.981,95.005h-1.743c-4.56,0-8.269-3.692-8.269-8.236
				c0-0.825,0.672-1.492,1.5-1.492c0.828,0,1.499,0.665,1.499,1.49c0,2.896,2.365,5.25,5.27,5.25h1.743
				c0.828,0,1.499,0.668,1.499,1.494C16.48,94.337,15.809,95.005,14.981,95.005z"/>
		</g>
	</g>
</g>
<g>
	<g>
		<g>
			<path fill="#AAAAAA" d="M43.485,94.754c-0.003-0.324-0.108-0.643-0.287-0.914l-0.989-1.492l0.968-1.299
				c0.214-0.292,0.343-0.643,0.343-1.004v-1.807c0-1.416-0.416-2.796-1.176-3.993l-2.12-3.33c-3.79,0.115-7.158,2.595-8.347,6.243
				c-0.207,0.631-0.795,1.033-1.427,1.033c-0.154,0-0.311-0.023-0.466-0.073c-0.787-0.255-1.219-1.098-0.962-1.883
				c1.403-4.302,5.08-7.382,9.408-8.133l-2.196-3.461c-0.101-0.158-0.208-0.31-0.318-0.458c-0.064,0.085-0.138,0.164-0.221,0.236
				l-4.21,3.599c-0.283,0.242-0.63,0.359-0.976,0.359c-0.422,0-0.842-0.176-1.138-0.521c-0.539-0.626-0.467-1.569,0.161-2.107
				l4.162-3.523c-1.129-0.661-2.43-0.992-3.792-0.992H27.83c-1.503,0-2.936,0.462-4.071,1.431v39.585
				c1.122,0.927,2.522,1.503,3.993,1.503h2.071c1.433,0,2.799-0.437,3.968-1.163l-4.042-3.47c-0.628-0.538-0.702-1.49-0.163-2.117
				c0.539-0.625,1.485-0.703,2.114-0.166l4.21,3.597c0.021,0.021,0.038,0.035,0.057,0.053c0.056-0.082,0.114-0.159,0.168-0.242
				l2.729-4.256l-1.169-1.035c-2.269-2.02-5.193-3.126-8.233-3.126c-0.829,0-1.5-0.673-1.5-1.494c0-0.826,0.671-1.494,1.5-1.494
				c3.776,0,7.408,1.379,10.228,3.884l0.81,0.723l1.822-2.817c0.772-1.203,1.195-2.597,1.195-4.024c0-0.006,0-0.013,0-0.02
				L43.485,94.754z M31.146,95.005h-1.743c-0.828,0-1.499-0.669-1.499-1.494c0-0.825,0.671-1.494,1.499-1.494h1.743
				c2.905,0,5.27-2.352,5.27-5.248c0-0.825,0.671-1.492,1.5-1.492c0.828,0,1.499,0.665,1.499,1.49
				C39.414,91.313,35.705,95.005,31.146,95.005z"/>
		</g>
	</g>
</g>
<g>
	<g enable-background="new    ">
		<path fill="#EAEAEA" d="M55.033,146.27l3.102,0.938c-0.208,0.87-0.537,1.597-0.984,2.18c-0.448,0.583-1.004,1.023-1.668,1.32
			s-1.509,0.445-2.535,0.445c-1.245,0-2.262-0.181-3.051-0.543c-0.789-0.361-1.47-0.998-2.043-1.908
			c-0.573-0.911-0.859-2.077-0.859-3.498c0-1.895,0.504-3.351,1.512-4.368s2.434-1.526,4.277-1.526c1.442,0,2.577,0.292,3.402,0.875
			c0.825,0.583,1.438,1.479,1.84,2.688l-3.125,0.695c-0.109-0.349-0.224-0.604-0.344-0.766c-0.198-0.271-0.44-0.479-0.727-0.625
			c-0.287-0.146-0.607-0.219-0.961-0.219c-0.802,0-1.417,0.322-1.844,0.968c-0.323,0.479-0.484,1.23-0.484,2.255
			c0,1.27,0.192,2.14,0.578,2.61c0.385,0.471,0.927,0.706,1.625,0.706c0.677,0,1.188-0.19,1.535-0.57
			C54.625,147.546,54.876,146.993,55.033,146.27z"/>
		<path fill="#EAEAEA" d="M66.894,149.066h-4.018l-0.559,1.891h-3.613l4.305-11.453h3.86l4.304,11.453h-3.706L66.894,149.066z
			 M66.16,146.59l-1.264-4.117l-1.251,4.117H66.16z"/>
		<path fill="#EAEAEA" d="M72.283,139.504h5.883c1.281,0,2.241,0.305,2.879,0.914s0.957,1.477,0.957,2.602
			c0,1.156-0.348,2.06-1.043,2.711s-1.757,0.977-3.184,0.977h-1.938v4.25h-3.555V139.504z M75.837,144.387h0.867
			c0.683,0,1.161-0.118,1.438-0.355s0.414-0.54,0.414-0.91c0-0.359-0.12-0.664-0.359-0.914s-0.69-0.375-1.352-0.375h-1.008V144.387z
			"/>
		<path fill="#EAEAEA" d="M83.861,139.504h6.625c1.104,0,1.952,0.273,2.543,0.82c0.59,0.547,0.887,1.224,0.887,2.031
			c0,0.677-0.211,1.258-0.633,1.742c-0.281,0.323-0.693,0.578-1.235,0.766c0.823,0.198,1.428,0.538,1.817,1.02
			c0.387,0.481,0.582,1.087,0.582,1.816c0,0.594-0.139,1.128-0.414,1.602c-0.277,0.474-0.654,0.849-1.133,1.125
			c-0.297,0.172-0.745,0.297-1.344,0.375c-0.797,0.104-1.325,0.156-1.586,0.156h-6.109V139.504z M87.431,143.996h1.539
			c0.552,0,0.937-0.095,1.152-0.285s0.324-0.465,0.324-0.824c0-0.333-0.108-0.594-0.324-0.781s-0.593-0.281-1.129-0.281h-1.563
			V143.996z M87.431,148.496h1.805c0.609,0,1.039-0.108,1.289-0.324s0.375-0.507,0.375-0.871c0-0.339-0.124-0.61-0.371-0.816
			s-0.681-0.309-1.301-0.309h-1.797V148.496z"/>
		<path fill="#EAEAEA" d="M95.682,147.168l3.367-0.211c0.072,0.547,0.221,0.964,0.445,1.25c0.363,0.464,0.885,0.695,1.563,0.695
			c0.504,0,0.895-0.118,1.168-0.355s0.41-0.512,0.41-0.824c0-0.297-0.131-0.563-0.391-0.797c-0.262-0.234-0.865-0.456-1.813-0.664
			c-1.553-0.349-2.66-0.813-3.32-1.391c-0.668-0.578-1-1.315-1-2.211c0-0.589,0.17-1.145,0.512-1.668
			c0.34-0.523,0.854-0.935,1.539-1.234c0.684-0.3,1.623-0.449,2.816-0.449c1.463,0,2.578,0.272,3.348,0.816
			c0.768,0.544,1.225,1.41,1.371,2.598l-3.336,0.195c-0.09-0.516-0.275-0.891-0.559-1.125c-0.285-0.234-0.676-0.352-1.176-0.352
			c-0.412,0-0.723,0.087-0.93,0.262c-0.209,0.175-0.313,0.387-0.313,0.637c0,0.183,0.086,0.347,0.258,0.492
			c0.166,0.151,0.563,0.292,1.188,0.422c1.547,0.333,2.654,0.671,3.324,1.012c0.668,0.341,1.156,0.765,1.461,1.27
			s0.457,1.07,0.457,1.695c0,0.734-0.203,1.411-0.609,2.031s-0.975,1.09-1.703,1.41c-0.73,0.32-1.648,0.48-2.758,0.48
			c-1.949,0-3.297-0.375-4.047-1.125S95.779,148.324,95.682,147.168z"/>
		<path fill="#EAEAEA" d="M113.15,139.504h4.654l1.795,6.969l1.781-6.969h4.652v11.453h-2.898v-8.734l-2.234,8.734h-2.623
			l-2.229-8.734v8.734h-2.898V139.504z"/>
		<path fill="#EAEAEA" d="M137.291,147.598h-6.375c0.057,0.511,0.195,0.891,0.414,1.141c0.307,0.359,0.707,0.539,1.203,0.539
			c0.313,0,0.609-0.078,0.891-0.234c0.172-0.099,0.355-0.273,0.555-0.523l3.133,0.289c-0.48,0.833-1.059,1.431-1.734,1.793
			c-0.678,0.362-1.648,0.543-2.914,0.543c-1.1,0-1.965-0.155-2.594-0.465c-0.631-0.31-1.152-0.802-1.566-1.477
			s-0.621-1.468-0.621-2.379c0-1.297,0.414-2.347,1.246-3.148c0.83-0.802,1.977-1.203,3.441-1.203c1.188,0,2.125,0.18,2.813,0.539
			s1.211,0.88,1.57,1.563s0.539,1.57,0.539,2.664V147.598z M134.057,146.074c-0.063-0.614-0.229-1.055-0.496-1.32
			c-0.27-0.266-0.621-0.398-1.059-0.398c-0.506,0-0.91,0.2-1.211,0.602c-0.193,0.25-0.316,0.622-0.367,1.117H134.057z"/>
		<path fill="#EAEAEA" d="M147.963,147.598h-6.375c0.057,0.511,0.195,0.891,0.414,1.141c0.307,0.359,0.707,0.539,1.203,0.539
			c0.313,0,0.609-0.078,0.891-0.234c0.172-0.099,0.355-0.273,0.555-0.523l3.133,0.289c-0.48,0.833-1.059,1.431-1.734,1.793
			c-0.678,0.362-1.648,0.543-2.914,0.543c-1.1,0-1.965-0.155-2.594-0.465c-0.631-0.31-1.152-0.802-1.566-1.477
			s-0.621-1.468-0.621-2.379c0-1.297,0.414-2.347,1.246-3.148c0.83-0.802,1.977-1.203,3.441-1.203c1.188,0,2.125,0.18,2.813,0.539
			s1.211,0.88,1.57,1.563s0.539,1.57,0.539,2.664V147.598z M144.729,146.074c-0.063-0.614-0.229-1.055-0.496-1.32
			c-0.27-0.266-0.621-0.398-1.059-0.398c-0.506,0-0.91,0.2-1.211,0.602c-0.193,0.25-0.316,0.622-0.367,1.117H144.729z"/>
		<path fill="#EAEAEA" d="M153.26,139.504v3.156h1.75v2.328h-1.75v2.939c0,0.354,0.033,0.588,0.102,0.701
			c0.104,0.178,0.285,0.266,0.547,0.266c0.234,0,0.563-0.067,0.984-0.203l0.234,2.195c-0.787,0.172-1.521,0.258-2.203,0.258
			c-0.793,0-1.375-0.102-1.75-0.305c-0.375-0.202-0.652-0.511-0.832-0.924c-0.18-0.414-0.27-1.084-0.27-2.01v-2.918H148.9v-2.328
			h1.172v-1.523L153.26,139.504z"/>
		<path fill="#EAEAEA" d="M156.643,139.504h3.18v2.164h-3.18V139.504z M156.643,142.66h3.18v8.297h-3.18V142.66z"/>
		<path fill="#EAEAEA" d="M161.854,142.66h2.961v1.352c0.441-0.552,0.891-0.946,1.344-1.184s1.004-0.355,1.656-0.355
			c0.879,0,1.568,0.262,2.066,0.785c0.496,0.523,0.746,1.332,0.746,2.426v5.273h-3.195v-4.563c0-0.521-0.098-0.89-0.289-1.105
			c-0.193-0.216-0.465-0.324-0.813-0.324c-0.387,0-0.699,0.146-0.938,0.438c-0.24,0.292-0.359,0.815-0.359,1.57v3.984h-3.18V142.66z
			"/>
		<path fill="#EAEAEA" d="M178.299,142.66h2.977v7.836l0.008,0.367c0,0.521-0.111,1.017-0.332,1.488
			c-0.223,0.472-0.516,0.853-0.883,1.145s-0.834,0.503-1.398,0.633c-0.566,0.13-1.213,0.195-1.941,0.195
			c-1.668,0-2.813-0.25-3.434-0.75c-0.623-0.5-0.934-1.169-0.934-2.008c0-0.104,0.004-0.245,0.016-0.422l3.086,0.352
			c0.078,0.286,0.197,0.484,0.359,0.594c0.234,0.161,0.527,0.242,0.883,0.242c0.457,0,0.801-0.122,1.027-0.367
			s0.34-0.672,0.34-1.281v-1.258c-0.313,0.37-0.625,0.638-0.938,0.805c-0.49,0.261-1.02,0.391-1.586,0.391
			c-1.109,0-2.006-0.484-2.688-1.453c-0.484-0.688-0.727-1.597-0.727-2.727c0-1.292,0.313-2.276,0.938-2.953
			s1.441-1.016,2.453-1.016c0.645,0,1.178,0.109,1.598,0.328c0.418,0.219,0.811,0.581,1.176,1.086V142.66z M175.307,146.684
			c0,0.599,0.127,1.043,0.383,1.332c0.254,0.289,0.59,0.434,1.008,0.434c0.395,0,0.727-0.149,0.996-0.449
			c0.268-0.3,0.402-0.751,0.402-1.355s-0.141-1.066-0.422-1.387s-0.625-0.48-1.031-0.48s-0.73,0.147-0.973,0.441
			S175.307,146.001,175.307,146.684z"/>
	</g>
	<g enable-background="new    ">
		<path fill="#EAEAEA" d="M52.767,163.504h3.305l4.313,6.336v-6.336h3.336v11.453h-3.336l-4.289-6.289v6.289h-3.328V163.504z"/>
		<path fill="#EAEAEA" d="M65.978,163.504h3.18v2.164h-3.18V163.504z M65.978,166.66h3.18v8.297h-3.18V166.66z"/>
		<path fill="#EAEAEA" d="M71.314,166.66h3.188v8.047c0,1.026-0.074,1.753-0.223,2.18s-0.423,0.773-0.824,1.039
			s-0.974,0.398-1.719,0.398c-0.614,0-1.378-0.091-2.289-0.273l0.477-2.313c0.255,0.052,0.442,0.078,0.563,0.078
			c0.271,0,0.477-0.093,0.617-0.277s0.211-0.554,0.211-1.105V166.66z M71.314,163.504h3.188v2.188h-3.188V163.504z"/>
		<path fill="#EAEAEA" d="M76.541,166.66h2.969v1.211c0.428-0.505,0.859-0.864,1.295-1.078s0.961-0.32,1.576-0.32
			c0.662,0,1.187,0.117,1.573,0.352c0.386,0.234,0.701,0.583,0.946,1.047c0.499-0.542,0.954-0.91,1.365-1.105
			s0.918-0.293,1.521-0.293c0.89,0,1.584,0.265,2.083,0.793s0.749,1.355,0.749,2.48v5.211h-3.188v-4.727
			c0-0.375-0.072-0.653-0.218-0.836c-0.213-0.286-0.478-0.43-0.794-0.43c-0.374,0-0.675,0.136-0.903,0.406s-0.343,0.706-0.343,1.305
			v4.281h-3.188v-4.57c0-0.364-0.021-0.612-0.063-0.742c-0.068-0.208-0.186-0.376-0.354-0.504c-0.167-0.128-0.363-0.191-0.588-0.191
			c-0.365,0-0.666,0.138-0.901,0.414s-0.353,0.729-0.353,1.359v4.234h-3.188V166.66z"/>
		<path fill="#EAEAEA" d="M101.729,171.598h-6.375c0.057,0.511,0.195,0.891,0.414,1.141c0.307,0.359,0.707,0.539,1.203,0.539
			c0.313,0,0.609-0.078,0.891-0.234c0.172-0.099,0.355-0.273,0.555-0.523l3.133,0.289c-0.48,0.833-1.059,1.431-1.734,1.793
			c-0.678,0.362-1.648,0.543-2.914,0.543c-1.1,0-1.965-0.155-2.594-0.465c-0.631-0.31-1.152-0.802-1.567-1.477
			c-0.414-0.675-0.621-1.468-0.621-2.379c0-1.297,0.415-2.347,1.247-3.148c0.83-0.802,1.977-1.203,3.441-1.203
			c1.188,0,2.125,0.18,2.813,0.539s1.211,0.88,1.57,1.563s0.539,1.57,0.539,2.664V171.598z M98.494,170.074
			c-0.063-0.614-0.229-1.055-0.496-1.32c-0.27-0.266-0.621-0.398-1.059-0.398c-0.506,0-0.91,0.2-1.211,0.602
			c-0.193,0.25-0.316,0.622-0.367,1.117H98.494z"/>
		<path fill="#EAEAEA" d="M109.361,166.66h2.977v7.836l0.008,0.367c0,0.521-0.111,1.017-0.332,1.488
			c-0.223,0.472-0.516,0.853-0.883,1.145s-0.834,0.503-1.398,0.633c-0.566,0.13-1.213,0.195-1.941,0.195
			c-1.668,0-2.813-0.25-3.434-0.75c-0.623-0.5-0.934-1.169-0.934-2.008c0-0.104,0.004-0.245,0.016-0.422l3.086,0.352
			c0.078,0.286,0.197,0.484,0.359,0.594c0.234,0.161,0.527,0.242,0.883,0.242c0.457,0,0.801-0.122,1.027-0.367
			s0.34-0.672,0.34-1.281v-1.258c-0.313,0.37-0.625,0.638-0.938,0.805c-0.49,0.261-1.02,0.391-1.586,0.391
			c-1.109,0-2.006-0.484-2.688-1.453c-0.484-0.688-0.727-1.597-0.727-2.727c0-1.292,0.313-2.276,0.938-2.953
			s1.441-1.016,2.453-1.016c0.645,0,1.178,0.109,1.598,0.328c0.418,0.219,0.811,0.581,1.176,1.086V166.66z M106.369,170.684
			c0,0.599,0.127,1.043,0.383,1.332c0.254,0.289,0.59,0.434,1.008,0.434c0.395,0,0.727-0.149,0.996-0.449
			c0.268-0.3,0.402-0.751,0.402-1.355s-0.141-1.066-0.422-1.387s-0.625-0.48-1.031-0.48s-0.73,0.147-0.973,0.441
			S106.369,170.001,106.369,170.684z"/>
		<path fill="#EAEAEA" d="M123.471,171.598h-6.375c0.057,0.511,0.195,0.891,0.414,1.141c0.307,0.359,0.707,0.539,1.203,0.539
			c0.313,0,0.609-0.078,0.891-0.234c0.172-0.099,0.355-0.273,0.555-0.523l3.133,0.289c-0.48,0.833-1.059,1.431-1.734,1.793
			c-0.678,0.362-1.648,0.543-2.914,0.543c-1.1,0-1.965-0.155-2.594-0.465c-0.631-0.31-1.152-0.802-1.566-1.477
			s-0.621-1.468-0.621-2.379c0-1.297,0.414-2.347,1.246-3.148c0.83-0.802,1.977-1.203,3.441-1.203c1.188,0,2.125,0.18,2.813,0.539
			s1.211,0.88,1.57,1.563s0.539,1.57,0.539,2.664V171.598z M120.236,170.074c-0.063-0.614-0.229-1.055-0.496-1.32
			c-0.27-0.266-0.621-0.398-1.059-0.398c-0.506,0-0.91,0.2-1.211,0.602c-0.193,0.25-0.316,0.622-0.367,1.117H120.236z"/>
		<path fill="#EAEAEA" d="M124.932,166.66h2.961v1.352c0.441-0.552,0.891-0.946,1.344-1.184s1.004-0.355,1.656-0.355
			c0.879,0,1.568,0.262,2.066,0.785c0.496,0.523,0.746,1.332,0.746,2.426v5.273h-3.195v-4.563c0-0.521-0.098-0.89-0.289-1.105
			c-0.193-0.216-0.465-0.324-0.813-0.324c-0.387,0-0.699,0.146-0.938,0.438c-0.24,0.292-0.359,0.815-0.359,1.57v3.984h-3.18V166.66z
			"/>
		<path fill="#EAEAEA" d="M149.947,174.957H140.4c0.109-0.942,0.441-1.829,0.996-2.66s1.594-1.812,3.121-2.941
			c0.932-0.692,1.527-1.219,1.789-1.578c0.26-0.359,0.391-0.7,0.391-1.023c0-0.349-0.129-0.647-0.387-0.895
			s-0.582-0.371-0.973-0.371c-0.406,0-0.738,0.128-0.996,0.383s-0.432,0.706-0.52,1.352l-3.188-0.258
			c0.125-0.896,0.354-1.595,0.688-2.098c0.332-0.503,0.803-0.888,1.41-1.156c0.605-0.269,1.445-0.402,2.52-0.402
			c1.119,0,1.99,0.128,2.613,0.383c0.621,0.255,1.111,0.647,1.469,1.176c0.355,0.528,0.535,1.121,0.535,1.777
			c0,0.698-0.205,1.364-0.613,2c-0.41,0.636-1.152,1.333-2.23,2.094c-0.641,0.442-1.07,0.753-1.285,0.93
			c-0.217,0.177-0.471,0.409-0.762,0.695h4.969V174.957z"/>
		<path fill="#EAEAEA" d="M151.307,169.184c0-2.177,0.391-3.7,1.176-4.57c0.783-0.87,1.977-1.305,3.582-1.305
			c0.77,0,1.402,0.095,1.898,0.285c0.494,0.19,0.898,0.438,1.211,0.742s0.559,0.625,0.738,0.961s0.324,0.728,0.434,1.176
			c0.213,0.854,0.32,1.745,0.32,2.672c0,2.078-0.352,3.599-1.055,4.563s-1.914,1.445-3.633,1.445c-0.965,0-1.742-0.153-2.336-0.461
			s-1.082-0.758-1.461-1.352c-0.277-0.422-0.492-0.999-0.645-1.73C151.383,170.878,151.307,170.069,151.307,169.184z
			 M154.463,169.191c0,1.458,0.129,2.454,0.387,2.988s0.631,0.801,1.121,0.801c0.322,0,0.602-0.113,0.84-0.34
			c0.236-0.227,0.41-0.585,0.523-1.074c0.111-0.489,0.168-1.253,0.168-2.289c0-1.521-0.129-2.543-0.387-3.066
			s-0.645-0.785-1.16-0.785c-0.527,0-0.906,0.267-1.141,0.801S154.463,167.749,154.463,169.191z"/>
		<path fill="#EAEAEA" d="M169.189,163.309v11.648h-3.219v-7.633c-0.521,0.396-1.025,0.716-1.512,0.961
			c-0.488,0.245-1.098,0.479-1.832,0.703v-2.609c1.082-0.349,1.924-0.769,2.523-1.258c0.598-0.489,1.066-1.094,1.406-1.813H169.189z
			"/>
		<path fill="#EAEAEA" d="M174.564,168.801c-0.5-0.266-0.865-0.563-1.094-0.891c-0.313-0.448-0.469-0.964-0.469-1.547
			c0-0.958,0.449-1.742,1.352-2.352c0.703-0.469,1.633-0.703,2.789-0.703c1.531,0,2.662,0.292,3.395,0.875
			c0.73,0.583,1.098,1.317,1.098,2.203c0,0.516-0.146,0.997-0.438,1.445c-0.219,0.333-0.563,0.656-1.031,0.969
			c0.619,0.297,1.082,0.69,1.387,1.18s0.457,1.031,0.457,1.625c0,0.573-0.133,1.108-0.395,1.605
			c-0.264,0.497-0.586,0.882-0.969,1.152s-0.859,0.47-1.43,0.598s-1.18,0.191-1.824,0.191c-1.215,0-2.141-0.144-2.781-0.43
			s-1.129-0.708-1.461-1.266c-0.334-0.558-0.5-1.18-0.5-1.867c0-0.672,0.156-1.241,0.469-1.707S173.912,169.056,174.564,168.801z
			 M175.822,171.48c0,0.505,0.152,0.918,0.461,1.238c0.307,0.32,0.658,0.48,1.055,0.48c0.379,0,0.721-0.163,1.023-0.488
			c0.301-0.325,0.453-0.738,0.453-1.238c0-0.505-0.152-0.919-0.457-1.242s-0.658-0.484-1.059-0.484
			c-0.396,0-0.742,0.156-1.035,0.469C175.969,170.527,175.822,170.949,175.822,171.48z M175.994,166.551
			c0,0.396,0.123,0.715,0.371,0.957c0.246,0.242,0.576,0.363,0.988,0.363c0.363,0,0.664-0.12,0.898-0.359s0.352-0.55,0.352-0.93
			c0-0.396-0.123-0.718-0.367-0.965c-0.246-0.247-0.559-0.371-0.938-0.371c-0.387,0-0.699,0.121-0.941,0.363
			S175.994,166.165,175.994,166.551z"/>
	</g>
</g>
<g>
	<g>
		<path fill="#D80027" d="M16.69,134.232h-2.07c-1.395,0-2.726,0.348-3.874,1.039l4.105,3.492c0.629,0.533,0.702,1.473,0.163,2.1
			c-0.296,0.345-0.716,0.517-1.139,0.517c-0.345,0-0.692-0.12-0.975-0.362l-4.21-3.599c-0.054-0.047-0.104-0.099-0.149-0.149
			c-0.088,0.121-0.172,0.244-0.253,0.371l-2.21,3.482c4.275,0.787,7.896,3.85,9.285,8.111c0.256,0.785-0.175,1.629-0.962,1.883
			c-0.154,0.051-0.31,0.074-0.463,0.074c-0.632,0-1.22-0.401-1.425-1.033c-1.176-3.605-4.478-6.067-8.211-6.236l-2.124,3.322
			C1.417,148.441,1,149.822,1,151.238v1.807c0,0.361,0.13,0.713,0.345,1.004l0.962,1.299l-0.981,1.492
			c-0.179,0.271-0.289,0.59-0.293,0.914L1,159.575c0,0.007,0,0.013,0,0.019c0,1.43,0.423,2.822,1.196,4.025l1.766,2.74l0.726-0.646
			c2.82-2.504,6.454-3.883,10.23-3.883c0.828,0,1.5,0.668,1.5,1.494c0,0.82-0.67,1.49-1.499,1.49c-3.04,0-5.964,1.111-8.233,3.127
			l-1.082,0.963l2.779,4.328c0.037,0.061,0.078,0.111,0.116,0.17l4.183-3.574c0.628-0.537,1.575-0.465,2.114,0.162
			c0.539,0.626,0.466,1.566-0.163,2.104l-3.983,3.438c1.187,0.759,2.582,1.213,4.046,1.213h2.072c1.47,0,2.871-0.576,3.992-1.503
			v-39.585C19.626,134.693,18.193,134.232,16.69,134.232z M14.981,158.005h-1.743c-4.56,0-8.269-3.692-8.269-8.235
			c0-0.826,0.672-1.492,1.5-1.492c0.828,0,1.499,0.666,1.499,1.49c0,2.896,2.365,5.25,5.27,5.25h1.743
			c0.828,0,1.499,0.668,1.499,1.493S15.809,158.005,14.981,158.005z"/>
	</g>
</g>
<g>
	<g>
		<path fill="#D80027" d="M43.485,157.754c-0.003-0.324-0.108-0.643-0.287-0.914l-0.989-1.492l0.968-1.299
			c0.214-0.291,0.343-0.643,0.343-1.004v-1.807c0-1.416-0.416-2.797-1.176-3.994l-2.12-3.329c-3.79,0.114-7.158,2.595-8.347,6.243
			c-0.207,0.631-0.795,1.033-1.427,1.033c-0.154,0-0.311-0.023-0.466-0.074c-0.787-0.254-1.219-1.098-0.962-1.883
			c1.403-4.303,5.08-7.383,9.408-8.133l-2.196-3.461c-0.101-0.158-0.208-0.313-0.318-0.459c-0.064,0.084-0.138,0.164-0.221,0.232
			l-4.21,3.602c-0.283,0.238-0.63,0.355-0.976,0.355c-0.422,0-0.842-0.178-1.138-0.521c-0.539-0.625-0.467-1.566,0.161-2.104
			l4.162-3.521c-1.129-0.66-2.43-0.992-3.792-0.992H27.83c-1.503,0-2.936,0.463-4.071,1.434v39.585
			c1.122,0.927,2.522,1.503,3.993,1.503h2.071c1.433,0,2.799-0.438,3.968-1.163l-4.042-3.47c-0.628-0.538-0.702-1.49-0.163-2.117
			c0.539-0.625,1.485-0.703,2.114-0.166l4.21,3.598c0.021,0.021,0.038,0.035,0.057,0.054c0.056-0.082,0.114-0.161,0.168-0.244
			l2.729-4.253l-1.169-1.038c-2.269-2.019-5.193-3.126-8.233-3.126c-0.829,0-1.5-0.671-1.5-1.494c0-0.826,0.671-1.494,1.5-1.494
			c3.776,0,7.408,1.379,10.228,3.885l0.81,0.721l1.822-2.816c0.772-1.203,1.195-2.598,1.195-4.023c0-0.008,0-0.014,0-0.021
			L43.485,157.754z M31.146,158.005h-1.743c-0.828,0-1.499-0.669-1.499-1.494s0.671-1.493,1.499-1.493h1.743
			c2.905,0,5.27-2.353,5.27-5.248c0-0.826,0.671-1.492,1.5-1.492c0.828,0,1.499,0.666,1.499,1.49
			C39.414,154.313,35.705,158.005,31.146,158.005z"/>
	</g>
</g>
</svg>
