<?xml version="1.0" standalone="no"?>
<!DOCTYPE svg PUBLIC "-//W3C//DTD SVG 20010904//EN"
 "http://www.w3.org/TR/2001/REC-SVG-20010904/DTD/svg10.dtd">
<svg version="1.0" xmlns="http://www.w3.org/2000/svg"
 width="762.000000pt" height="775.000000pt" viewBox="0 0 762.000000 775.000000"
 preserveAspectRatio="xMidYMid meet">
<metadata>
Created by potrace 1.15, written by Peter Selinger 2001-2017
</metadata>
<g transform="translate(0.000000,775.000000) scale(0.100000,-0.100000)"
fill="#000000" stroke="none">
<path d="M2200 6930 l0 -300 45 0 45 0 0 133 c0 114 3 136 20 165 35 58 105
65 138 14 13 -20 18 -56 21 -169 l3 -143 44 0 44 0 0 148 c0 163 -8 208 -44
241 -45 42 -152 40 -200 -4 l-26 -24 0 119 0 120 -45 0 -45 0 0 -300z"/>
<path d="M3150 6930 l0 -300 45 0 45 0 0 300 0 300 -45 0 -45 0 0 -300z"/>
<path d="M5330 6930 l0 -300 45 0 45 0 0 300 0 300 -45 0 -45 0 0 -300z"/>
<path d="M5833 7194 c-71 -35 -90 -131 -41 -197 l27 -34 -44 -31 c-61 -43 -78
-80 -73 -158 3 -53 9 -69 33 -94 15 -16 48 -37 72 -46 82 -32 237 -4 282 50
11 13 16 12 37 -13 32 -38 71 -53 130 -49 l49 3 3 42 c3 43 3 43 -23 33 -34
-13 -68 -4 -96 26 l-23 24 37 73 c43 85 60 147 55 207 -3 45 -3 45 -44 48
l-42 3 -4 -78 c-2 -52 -11 -94 -26 -127 l-22 -49 -42 48 c-23 26 -55 56 -71
65 l-28 18 34 21 c84 52 79 180 -8 217 -45 19 -132 17 -172 -2z m132 -69 c33
-32 31 -61 -6 -96 -37 -34 -52 -36 -79 -9 -40 40 -34 101 13 120 35 14 46 12
72 -15z m-22 -236 c25 -16 62 -51 81 -77 l36 -47 -32 -27 c-17 -15 -55 -33
-84 -39 -45 -10 -57 -9 -90 7 -78 38 -81 122 -6 183 20 17 39 31 43 31 3 0 26
-14 52 -31z"/>
<path d="M600 6915 l0 -285 45 0 45 0 0 105 0 105 70 0 c135 0 213 71 213 191
0 73 -25 117 -83 147 -39 19 -60 22 -167 22 l-123 0 0 -285z m215 201 c18 -8
38 -23 44 -34 16 -30 13 -104 -4 -129 -17 -25 -71 -43 -127 -43 l-38 0 0 110
0 110 45 0 c25 0 61 -6 80 -14z"/>
<path d="M1114 7036 c-46 -20 -74 -62 -74 -110 0 -58 22 -83 106 -122 81 -36
101 -60 79 -90 -18 -25 -97 -25 -144 -1 -19 9 -36 17 -38 17 -1 0 -3 -20 -3
-45 0 -40 3 -47 26 -55 40 -16 152 -12 189 6 47 22 66 46 72 92 9 65 -15 96
-107 139 -83 39 -96 52 -80 83 18 33 79 35 153 5 15 -6 17 -1 17 38 0 42 -2
45 -31 51 -52 10 -132 6 -165 -8z"/>
<path d="M1899 7027 c-103 -54 -140 -195 -81 -308 36 -70 89 -99 178 -99 94 0
114 10 114 61 0 35 -3 40 -17 34 -78 -32 -130 -26 -174 21 -18 19 -24 38 -27
87 -4 76 19 120 76 144 36 15 68 12 125 -12 26 -11 25 70 -2 85 -37 19 -144
12 -192 -13z"/>
<path d="M2745 7031 c-95 -43 -137 -155 -104 -274 13 -47 63 -106 106 -123 49
-21 147 -18 192 6 82 41 116 112 109 221 -7 86 -40 142 -101 170 -55 24 -148
25 -202 0z m174 -86 c24 -23 26 -33 26 -109 0 -75 -3 -87 -24 -110 -50 -53
-143 -38 -175 29 -20 42 -20 118 0 160 31 66 122 82 173 30z"/>
<path d="M3435 7031 c-95 -43 -137 -155 -104 -274 13 -47 63 -106 106 -123 49
-21 147 -18 192 6 82 41 116 112 109 221 -7 86 -40 142 -101 170 -55 24 -148
25 -202 0z m174 -86 c24 -23 26 -33 26 -109 0 -75 -3 -87 -24 -110 -50 -53
-143 -38 -175 29 -20 42 -20 118 0 160 31 66 122 82 173 30z"/>
<path d="M3900 7032 c-19 -10 -48 -41 -65 -67 -27 -44 -30 -56 -30 -134 0
-143 45 -202 160 -209 52 -3 65 0 99 23 l39 26 -5 -52 c-4 -43 -11 -58 -36
-80 -50 -45 -116 -46 -219 -3 -9 4 -13 -7 -13 -40 0 -44 1 -45 38 -55 61 -17
171 -13 218 8 49 22 88 70 103 126 6 23 11 130 11 253 l0 212 -50 0 c-40 0
-50 -3 -50 -17 0 -14 -2 -14 -21 3 -30 27 -133 31 -179 6z m148 -66 c41 -21
57 -60 56 -133 0 -47 -6 -70 -21 -91 -70 -95 -183 -43 -183 85 0 70 24 121 64
139 40 17 51 17 84 0z"/>
<path d="M4609 7027 c-103 -54 -140 -195 -81 -308 36 -70 89 -99 178 -99 94 0
114 10 114 61 0 35 -3 40 -17 34 -78 -32 -130 -26 -174 21 -18 19 -24 38 -27
87 -4 76 19 120 76 144 36 15 68 12 125 -12 26 -11 25 70 -2 85 -37 19 -144
12 -192 -13z"/>
<path d="M4958 7033 c-36 -14 -38 -18 -38 -59 l0 -44 43 21 c59 31 123 31 148
0 36 -44 26 -57 -53 -71 -94 -16 -129 -31 -156 -65 -24 -31 -30 -97 -11 -138
27 -60 137 -77 203 -32 34 23 36 23 36 5 0 -17 7 -20 45 -20 l45 0 0 155 c0
177 -9 213 -62 245 -41 25 -145 27 -200 3z m172 -238 c0 -50 -46 -99 -93 -99
-44 0 -67 18 -67 54 0 37 20 51 93 66 34 7 63 12 65 13 1 1 2 -15 2 -34z"/>
<path d="M1354 7023 c15 -37 109 -280 131 -339 l24 -61 -24 -51 c-26 -56 -52
-76 -90 -66 -24 6 -25 4 -25 -35 l0 -41 48 0 c56 0 101 24 130 71 11 19 61
140 110 269 50 129 93 243 97 253 6 15 1 17 -43 17 l-50 0 -53 -157 -52 -158
-52 155 -52 155 -53 3 c-47 3 -52 1 -46 -15z"/>
<path d="M4320 6835 l0 -205 45 0 45 0 0 205 0 205 -45 0 -45 0 0 -205z"/>
<path d="M4183 6299 c-47 -14 -100 -68 -108 -112 -18 -92 21 -147 152 -215 44
-23 86 -49 93 -57 20 -25 16 -73 -9 -98 -30 -31 -128 -30 -188 1 -23 12 -45
22 -48 22 -3 0 -5 -20 -5 -45 0 -56 16 -66 124 -72 136 -9 215 28 237 109 24
91 -14 149 -141 218 -119 64 -145 106 -96 155 42 42 101 42 199 0 15 -6 17 -1
17 39 0 41 -3 48 -26 56 -31 12 -158 11 -201 -1z"/>
<path d="M2040 6015 l0 -285 123 0 c107 0 128 3 167 23 25 12 55 38 68 57 20
29 23 44 20 94 -4 53 -8 62 -41 92 -20 19 -47 34 -59 34 -21 0 -20 2 9 20 45
27 65 62 65 115 1 54 -22 92 -73 117 -27 14 -60 18 -156 18 l-123 0 0 -285z
m231 189 c12 -11 19 -30 19 -54 0 -53 -34 -82 -105 -88 l-55 -4 0 87 0 88 61
-6 c37 -3 68 -12 80 -23z m-19 -224 c43 -12 68 -42 68 -83 0 -63 -49 -97 -140
-97 l-50 0 0 95 0 95 43 0 c23 0 59 -5 79 -10z"/>
<path d="M2629 6121 l-29 -29 0 24 c0 22 -4 24 -45 24 l-45 0 0 -205 0 -205
45 0 45 0 0 120 c0 133 12 178 53 205 18 11 36 14 61 9 l36 -6 0 46 0 46 -46
0 c-37 0 -51 -5 -75 -29z"/>
<path d="M2858 6133 c-36 -14 -38 -18 -38 -59 l0 -44 43 21 c59 31 123 31 148
0 36 -44 26 -57 -53 -71 -94 -16 -129 -31 -156 -65 -24 -31 -30 -97 -11 -138
27 -60 137 -77 203 -32 34 23 36 23 36 5 0 -17 7 -20 45 -20 l45 0 0 155 c0
177 -9 213 -62 245 -41 25 -145 27 -200 3z m172 -238 c0 -50 -46 -99 -93 -99
-44 0 -67 18 -67 54 0 37 20 51 93 66 34 7 63 12 65 13 1 1 2 -15 2 -34z"/>
<path d="M3600 6143 c-8 -3 -27 -17 -42 -31 l-28 -26 0 27 c0 25 -3 27 -45 27
l-45 0 0 -205 0 -205 45 0 45 0 0 134 c0 121 2 136 23 166 43 65 120 60 144
-10 7 -20 12 -91 12 -162 l1 -128 45 0 45 0 0 155 c0 171 -8 206 -55 243 -21
16 -41 22 -79 21 -28 0 -58 -3 -66 -6z"/>
<path d="M4609 6127 c-103 -54 -140 -195 -81 -308 36 -70 89 -99 178 -99 94 0
114 10 114 61 0 35 -3 40 -17 34 -78 -32 -130 -26 -174 21 -18 19 -24 38 -27
87 -4 76 19 120 76 144 36 15 68 12 125 -12 26 -11 25 70 -2 85 -37 19 -144
12 -192 -13z"/>
<path d="M5204 6136 c-17 -8 -45 -31 -62 -52 -94 -113 -56 -315 65 -355 42
-14 168 -8 201 10 17 9 22 21 22 51 0 37 -12 52 -24 31 -3 -4 -26 -14 -51 -21
-63 -18 -119 -1 -145 43 -11 18 -20 42 -20 55 0 22 2 22 135 22 l135 0 0 52
c0 72 -31 133 -81 158 -45 23 -129 26 -175 6z"/>
<path d="M5710 6143 c-8 -3 -27 -17 -42 -31 l-28 -26 0 27 c0 25 -3 27 -45 27
l-45 0 0 -205 0 -205 45 0 45 0 0 134 c0 121 2 136 23 166 43 65 120 60 144
-10 7 -20 12 -91 12 -162 l1 -128 45 0 45 0 0 155 c0 171 -8 206 -55 243 -21
16 -41 22 -79 21 -28 0 -58 -3 -66 -6z"/>
<path d="M6099 6127 c-103 -54 -140 -195 -81 -308 36 -70 89 -99 178 -99 94 0
114 10 114 61 0 35 -3 40 -17 34 -78 -32 -130 -26 -174 21 -18 19 -24 38 -27
87 -4 76 19 120 76 144 36 15 68 12 125 -12 26 -11 25 70 -2 85 -37 19 -144
12 -192 -13z"/>
<path d="M6484 6136 c-17 -8 -45 -31 -62 -52 -94 -113 -56 -315 65 -355 42
-14 168 -8 201 10 17 9 22 21 22 51 0 37 -12 52 -24 31 -3 -4 -26 -14 -51 -21
-63 -18 -119 -1 -145 43 -11 18 -20 42 -20 55 0 22 2 22 135 22 l135 0 0 52
c0 72 -31 133 -81 158 -45 23 -129 26 -175 6z"/>
<path d="M6874 6136 c-46 -20 -74 -62 -74 -110 0 -58 22 -83 106 -122 81 -36
101 -60 79 -90 -18 -25 -97 -25 -144 -1 -19 9 -36 17 -38 17 -1 0 -3 -20 -3
-45 0 -40 3 -47 26 -55 40 -16 152 -12 189 6 47 22 66 46 72 92 9 65 -15 96
-107 139 -83 39 -96 52 -80 83 18 33 79 35 153 5 15 -6 17 -1 17 38 0 42 -2
45 -31 51 -52 10 -132 6 -165 -8z"/>
<path d="M3230 5935 l0 -205 45 0 45 0 0 205 0 205 -45 0 -45 0 0 -205z"/>
<path d="M4910 5935 l0 -205 45 0 45 0 0 205 0 205 -45 0 -45 0 0 -205z"/>
<path d="M2110 4450 l0 -300 45 0 45 0 0 133 c0 114 3 136 20 165 35 58 105
65 138 14 13 -20 18 -56 21 -169 l3 -143 44 0 44 0 0 148 c0 163 -8 208 -44
241 -45 42 -152 40 -200 -4 l-26 -24 0 119 0 120 -45 0 -45 0 0 -300z"/>
<path d="M3060 4450 l0 -300 45 0 45 0 0 300 0 300 -45 0 -45 0 0 -300z"/>
<path d="M5240 4450 l0 -300 45 0 45 0 0 300 0 300 -45 0 -45 0 0 -300z"/>
<path d="M5743 4714 c-71 -35 -90 -131 -41 -197 l27 -34 -44 -31 c-61 -43 -78
-80 -73 -158 3 -53 9 -69 33 -94 15 -16 48 -37 72 -46 82 -32 237 -4 282 50
11 13 16 12 37 -13 32 -38 71 -53 130 -49 l49 3 3 42 c3 43 3 43 -23 33 -34
-13 -68 -4 -96 26 l-23 24 37 73 c43 85 60 147 55 207 -3 45 -3 45 -44 48
l-42 3 -4 -78 c-2 -52 -11 -94 -26 -127 l-22 -49 -42 48 c-23 26 -55 56 -71
65 l-28 18 34 21 c84 52 79 180 -8 217 -45 19 -132 17 -172 -2z m132 -69 c33
-32 31 -61 -6 -96 -37 -34 -52 -36 -79 -9 -40 40 -34 101 13 120 35 14 46 12
72 -15z m-22 -236 c25 -16 62 -51 81 -77 l36 -47 -32 -27 c-17 -15 -55 -33
-84 -39 -45 -10 -57 -9 -90 7 -78 38 -81 122 -6 183 20 17 39 31 43 31 3 0 26
-14 52 -31z"/>
<path d="M510 4435 l0 -285 45 0 45 0 0 105 0 105 70 0 c135 0 213 71 213 191
0 73 -25 117 -83 147 -39 19 -60 22 -167 22 l-123 0 0 -285z m215 201 c18 -8
38 -23 44 -34 16 -30 13 -104 -4 -129 -17 -25 -71 -43 -127 -43 l-38 0 0 110
0 110 45 0 c25 0 61 -6 80 -14z"/>
<path d="M1024 4556 c-46 -20 -74 -62 -74 -110 0 -58 22 -83 106 -122 81 -36
101 -60 79 -90 -18 -25 -97 -25 -144 -1 -19 9 -36 17 -38 17 -1 0 -3 -20 -3
-45 0 -40 3 -47 26 -55 40 -16 152 -12 189 6 47 22 66 46 72 92 9 65 -15 96
-107 139 -83 39 -96 52 -80 83 18 33 79 35 153 5 15 -6 17 -1 17 38 0 42 -2
45 -31 51 -52 10 -132 6 -165 -8z"/>
<path d="M1809 4547 c-103 -54 -140 -195 -81 -308 36 -70 89 -99 178 -99 94 0
114 10 114 61 0 35 -3 40 -17 34 -78 -32 -130 -26 -174 21 -18 19 -24 38 -27
87 -4 76 19 120 76 144 36 15 68 12 125 -12 26 -11 25 70 -2 85 -37 19 -144
12 -192 -13z"/>
<path d="M2655 4551 c-95 -43 -137 -155 -104 -274 13 -47 63 -106 106 -123 49
-21 147 -18 192 6 82 41 116 112 109 221 -7 86 -40 142 -101 170 -55 24 -148
25 -202 0z m174 -86 c24 -23 26 -33 26 -109 0 -75 -3 -87 -24 -110 -50 -53
-143 -38 -175 29 -20 42 -20 118 0 160 31 66 122 82 173 30z"/>
<path d="M3345 4551 c-95 -43 -137 -155 -104 -274 13 -47 63 -106 106 -123 49
-21 147 -18 192 6 82 41 116 112 109 221 -7 86 -40 142 -101 170 -55 24 -148
25 -202 0z m174 -86 c24 -23 26 -33 26 -109 0 -75 -3 -87 -24 -110 -50 -53
-143 -38 -175 29 -20 42 -20 118 0 160 31 66 122 82 173 30z"/>
<path d="M3810 4552 c-19 -10 -48 -41 -65 -67 -27 -44 -30 -56 -30 -134 0
-143 45 -202 160 -209 52 -3 65 0 99 23 l39 26 -5 -52 c-4 -43 -11 -58 -36
-80 -50 -45 -116 -46 -219 -3 -9 4 -13 -7 -13 -40 0 -44 1 -45 38 -55 61 -17
171 -13 218 8 49 22 88 70 103 126 6 23 11 130 11 253 l0 212 -50 0 c-40 0
-50 -3 -50 -17 0 -14 -2 -14 -21 3 -30 27 -133 31 -179 6z m148 -66 c41 -21
57 -60 56 -133 0 -47 -6 -70 -21 -91 -70 -95 -183 -43 -183 85 0 70 24 121 64
139 40 17 51 17 84 0z"/>
<path d="M4519 4547 c-103 -54 -140 -195 -81 -308 36 -70 89 -99 178 -99 94 0
114 10 114 61 0 35 -3 40 -17 34 -78 -32 -130 -26 -174 21 -18 19 -24 38 -27
87 -4 76 19 120 76 144 36 15 68 12 125 -12 26 -11 25 70 -2 85 -37 19 -144
12 -192 -13z"/>
<path d="M4868 4553 c-36 -14 -38 -18 -38 -59 l0 -44 43 21 c59 31 123 31 148
0 36 -44 26 -57 -53 -71 -94 -16 -129 -31 -156 -65 -24 -31 -30 -97 -11 -138
27 -60 137 -77 203 -32 34 23 36 23 36 5 0 -17 7 -20 45 -20 l45 0 0 155 c0
177 -9 213 -62 245 -41 25 -145 27 -200 3z m172 -238 c0 -50 -46 -99 -93 -99
-44 0 -67 18 -67 54 0 37 20 51 93 66 34 7 63 12 65 13 1 1 2 -15 2 -34z"/>
<path d="M1264 4543 c15 -37 109 -280 131 -339 l24 -61 -24 -51 c-26 -56 -52
-76 -90 -66 -24 6 -25 4 -25 -35 l0 -41 48 0 c56 0 101 24 130 71 11 19 61
140 110 269 50 129 93 243 97 253 6 15 1 17 -43 17 l-50 0 -53 -157 -52 -158
-52 155 -52 155 -53 3 c-47 3 -52 1 -46 -15z"/>
<path d="M4230 4355 l0 -205 45 0 45 0 0 205 0 205 -45 0 -45 0 0 -205z"/>
<path d="M4093 3819 c-47 -14 -100 -68 -108 -112 -18 -92 21 -147 152 -215 44
-23 86 -49 93 -57 20 -25 16 -73 -9 -98 -30 -31 -128 -30 -188 1 -23 12 -45
22 -48 22 -3 0 -5 -20 -5 -45 0 -56 16 -66 124 -72 136 -9 215 28 237 109 24
91 -14 149 -141 218 -119 64 -145 106 -96 155 42 42 101 42 199 0 15 -6 17 -1
17 39 0 41 -3 48 -26 56 -31 12 -158 11 -201 -1z"/>
<path d="M1950 3535 l0 -285 123 0 c107 0 128 3 167 23 25 12 55 38 68 57 20
29 23 44 20 94 -4 53 -8 62 -41 92 -20 19 -47 34 -59 34 -21 0 -20 2 9 20 45
27 65 62 65 115 1 54 -22 92 -73 117 -27 14 -60 18 -156 18 l-123 0 0 -285z
m231 189 c12 -11 19 -30 19 -54 0 -53 -34 -82 -105 -88 l-55 -4 0 87 0 88 61
-6 c37 -3 68 -12 80 -23z m-19 -224 c43 -12 68 -42 68 -83 0 -63 -49 -97 -140
-97 l-50 0 0 95 0 95 43 0 c23 0 59 -5 79 -10z"/>
<path d="M2539 3641 l-29 -29 0 24 c0 22 -4 24 -45 24 l-45 0 0 -205 0 -205
45 0 45 0 0 120 c0 133 12 178 53 205 18 11 36 14 61 9 l36 -6 0 46 0 46 -46
0 c-37 0 -51 -5 -75 -29z"/>
<path d="M2768 3653 c-36 -14 -38 -18 -38 -59 l0 -44 43 21 c59 31 123 31 148
0 36 -44 26 -57 -53 -71 -94 -16 -129 -31 -156 -65 -24 -31 -30 -97 -11 -138
27 -60 137 -77 203 -32 34 23 36 23 36 5 0 -17 7 -20 45 -20 l45 0 0 155 c0
177 -9 213 -62 245 -41 25 -145 27 -200 3z m172 -238 c0 -50 -46 -99 -93 -99
-44 0 -67 18 -67 54 0 37 20 51 93 66 34 7 63 12 65 13 1 1 2 -15 2 -34z"/>
<path d="M3510 3663 c-8 -3 -27 -17 -42 -31 l-28 -26 0 27 c0 25 -3 27 -45 27
l-45 0 0 -205 0 -205 45 0 45 0 0 134 c0 121 2 136 23 166 43 65 120 60 144
-10 7 -20 12 -91 12 -162 l1 -128 45 0 45 0 0 155 c0 171 -8 206 -55 243 -21
16 -41 22 -79 21 -28 0 -58 -3 -66 -6z"/>
<path d="M4519 3647 c-103 -54 -140 -195 -81 -308 36 -70 89 -99 178 -99 94 0
114 10 114 61 0 35 -3 40 -17 34 -78 -32 -130 -26 -174 21 -18 19 -24 38 -27
87 -4 76 19 120 76 144 36 15 68 12 125 -12 26 -11 25 70 -2 85 -37 19 -144
12 -192 -13z"/>
<path d="M5114 3656 c-17 -8 -45 -31 -62 -52 -94 -113 -56 -315 65 -355 42
-14 168 -8 201 10 17 9 22 21 22 51 0 37 -12 52 -24 31 -3 -4 -26 -14 -51 -21
-63 -18 -119 -1 -145 43 -11 18 -20 42 -20 55 0 22 2 22 135 22 l135 0 0 52
c0 72 -31 133 -81 158 -45 23 -129 26 -175 6z"/>
<path d="M5620 3663 c-8 -3 -27 -17 -42 -31 l-28 -26 0 27 c0 25 -3 27 -45 27
l-45 0 0 -205 0 -205 45 0 45 0 0 134 c0 121 2 136 23 166 43 65 120 60 144
-10 7 -20 12 -91 12 -162 l1 -128 45 0 45 0 0 155 c0 171 -8 206 -55 243 -21
16 -41 22 -79 21 -28 0 -58 -3 -66 -6z"/>
<path d="M6009 3647 c-103 -54 -140 -195 -81 -308 36 -70 89 -99 178 -99 94 0
114 10 114 61 0 35 -3 40 -17 34 -78 -32 -130 -26 -174 21 -18 19 -24 38 -27
87 -4 76 19 120 76 144 36 15 68 12 125 -12 26 -11 25 70 -2 85 -37 19 -144
12 -192 -13z"/>
<path d="M6394 3656 c-17 -8 -45 -31 -62 -52 -94 -113 -56 -315 65 -355 42
-14 168 -8 201 10 17 9 22 21 22 51 0 37 -12 52 -24 31 -3 -4 -26 -14 -51 -21
-63 -18 -119 -1 -145 43 -11 18 -20 42 -20 55 0 22 2 22 135 22 l135 0 0 52
c0 72 -31 133 -81 158 -45 23 -129 26 -175 6z"/>
<path d="M6784 3656 c-46 -20 -74 -62 -74 -110 0 -58 22 -83 106 -122 81 -36
101 -60 79 -90 -18 -25 -97 -25 -144 -1 -19 9 -36 17 -38 17 -1 0 -3 -20 -3
-45 0 -40 3 -47 26 -55 40 -16 152 -12 189 6 47 22 66 46 72 92 9 65 -15 96
-107 139 -83 39 -96 52 -80 83 18 33 79 35 153 5 15 -6 17 -1 17 38 0 42 -2
45 -31 51 -52 10 -132 6 -165 -8z"/>
<path d="M3140 3455 l0 -205 45 0 45 0 0 205 0 205 -45 0 -45 0 0 -205z"/>
<path d="M4820 3455 l0 -205 45 0 45 0 0 205 0 205 -45 0 -45 0 0 -205z"/>
</g>
</svg>
