<?xml version="1.0" encoding="utf-8"?>
<!-- Generator: Adobe Illustrator 16.0.3, SVG Export Plug-In . SVG Version: 6.00 Build 0)  -->
<!DOCTYPE svg PUBLIC "-//W3C//DTD SVG 1.1//EN" "http://www.w3.org/Graphics/SVG/1.1/DTD/svg11.dtd">
<svg version="1.1" id="Capa_1" xmlns="http://www.w3.org/2000/svg" xmlns:xlink="http://www.w3.org/1999/xlink" x="0px" y="0px"
	 width="323.15px" height="453.54px" viewBox="0 0 323.15 453.54" enable-background="new 0 0 323.15 453.54" xml:space="preserve">
<g>
	<path fill="#030104" d="M169.187,226.88c-0.446-0.135-0.752-0.229-0.519-0.824c0.505-1.294,0.559-2.411,0.011-3.207
		c-1.028-1.494-3.839-1.414-7.059-0.04c0-0.001-1.012,0.451-0.754-0.367c0.496-1.622,0.42-2.979-0.35-3.764
		c-1.747-1.78-6.395,0.067-10.382,4.124c-2.985,3.039-4.717,6.259-4.717,9.044c0,5.326,6.71,8.889,13.275,8.889
		c8.605,0,14.331-5.414,14.331-9.454C173.023,228.838,171.003,227.454,169.187,226.88z M158.71,238.347
		c-5.239,0.519-9.76-1.86-10.101-5.32c-0.34-3.457,3.632-6.683,8.87-7.204c5.239-0.521,9.761,1.86,10.101,5.318
		C167.919,234.6,163.95,237.826,158.71,238.347z M177.732,222.543c-0.002-5.379-4.363-9.739-9.743-9.739
		c-0.628,0-1.137,0.509-1.137,1.137s0.509,1.136,1.137,1.136c4.126,0,7.47,3.345,7.47,7.47c0,0.628,0.51,1.137,1.137,1.137
		c0.628,0,1.137-0.509,1.137-1.137C177.732,222.548,177.732,222.545,177.732,222.543z M173.216,222.376
		c-0.52-2.536-2.519-4.535-5.055-5.055c-0.614-0.126-1.216,0.27-1.342,0.884s0.27,1.215,0.884,1.342
		c1.649,0.338,2.949,1.637,3.286,3.286c0.127,0.615,0.728,1.011,1.343,0.884C172.946,223.591,173.342,222.991,173.216,222.376z
		 M156.023,229.21c-2.11,0.424-3.534,2.193-3.181,3.952c0.353,1.759,2.35,2.84,4.46,2.415c2.11-0.424,3.535-2.192,3.181-3.952
		C160.131,229.868,158.133,228.786,156.023,229.21z"/>
</g>
</svg>
